<mxfile host="65bd71144e">
    <diagram id="Nj0We__bctL6BeNEQ48d" name="Page-1">
        <mxGraphModel dx="3170" dy="2557" grid="1" gridSize="10" guides="1" tooltips="1" connect="1" arrows="1" fold="1" page="1" pageScale="1" pageWidth="850" pageHeight="1100" math="0" shadow="0">
            <root>
                <mxCell id="0"/>
                <mxCell id="1" parent="0"/>
                <UserObject label="" plantUmlData="{&#10;  &quot;data&quot;: &quot;@startuml\nleft to right direction\nactor User\nactor SurveillanceCamera\nactor Security\nactor AI_Violence_Detection\ndatabase VideoStorage\n\n\nrectangle ViolenceDetectionSystem {\n  rectangle UserInterface {\n    User -- (Initiate Violence Detection)\n    (Initiate Violence Detection) --&gt; (Request Video)\n  }\n\n  rectangle VideoProcessing {\n    (Request Video) --&gt; SurveillanceCamera : Capture Video\n    SurveillanceCamera -- (Camera Controller)\n    (Camera Controller) --&gt; (Manage Cameras)\n    (Camera Controller) --&gt; (Configure Cameras)\n  }\n\n  rectangle VideoAnalytics {\n    (Receive Video) --&gt; VideoStorage : Store Video\n    (Receive Video) --&gt; AI_Violence_Detection : Analyze Video\n    AI_Violence_Detection -- (Preprocess Video)\n    (Preprocess Video) --&gt; (Extract Features)\n    (Extract Features) --&gt; (Feature Extraction Engine)\n    (Feature Extraction Engine) --&gt; (Feature Database)\n    (Feature Database) --&gt; AI_Violence_Detection : Features\n    AI_Violence_Detection -- (Violence Detection)\n    (Violence Detection) --&gt; (Generate Alert)\n    (Violence Detection) --&gt; (Update Incident Log)\n  }\n\n  rectangle Alerting {\n    (Generate Alert) --&gt; (Alert Authorities)\n    (Generate Alert) --&gt; Security : Alert Authorities\n    Security -- (Security Personnel)\n    (Generate Alert) --&gt; (Notify User)\n    (Notify User) --&gt; User : Alert Notification\n  }\n\n  rectangle IncidentManagement {\n    (Update Incident Log) --&gt; (Incident Database)\n    (Incident Database) --&gt; (Retrieve Incident History)\n    (Retrieve Incident History) --&gt; User : Historical Data\n  }\n\n  rectangle ModelTraining {\n    AI_Violence_Detection -- (Train Model)\n    AI_Violence_Detection -- (Update Model)\n    (Train Model) --&gt; (Training Data)\n    (Training Data) --&gt; (Data Preparation)\n    (Data Preparation) --&gt; (Data Cleaning)\n    (Data Cleaning) --&gt; (Feature Engineering)\n    (Feature Engineering) --&gt; (Model Training Algorithm)\n    (Model Training Algorithm) --&gt; (Trained Model)\n    (Trained Model) --&gt; (Model Evaluation)\n    (Model Evaluation) --&gt; (Fine-tuning)\n  }\n\n  rectangle CloudIntegration {\n    (Deploy Model) --&gt; (Monitor Model)\n    (Monitor Model) --&gt; (Scale Resources)\n  }\n\n  UserInterface -- VideoProcessing\n  VideoProcessing -- VideoAnalytics\n  VideoAnalytics -- Alerting\n  VideoAnalytics -- IncidentManagement\n  ModelTraining -- CloudIntegration\n}\n\n@enduml\n&quot;,&#10;  &quot;format&quot;: &quot;svg&quot;&#10;}" id="2">
                    <mxCell style="shape=image;noLabel=1;verticalAlign=top;aspect=fixed;imageAspect=0;image=data:image/svg+xml,PD94bWwgdmVyc2lvbj0iMS4wIiBlbmNvZGluZz0idXMtYXNjaWkiIHN0YW5kYWxvbmU9Im5vIj8+PHN2ZyB4bWxucz0iaHR0cDovL3d3dy53My5vcmcvMjAwMC9zdmciIHhtbG5zOnhsaW5rPSJodHRwOi8vd3d3LnczLm9yZy8xOTk5L3hsaW5rIiBjb250ZW50U3R5bGVUeXBlPSJ0ZXh0L2NzcyIgaGVpZ2h0PSIxNzIycHgiIHByZXNlcnZlQXNwZWN0UmF0aW89Im5vbmUiIHN0eWxlPSJ3aWR0aDoyNjAwcHg7aGVpZ2h0OjE3MjJweDtiYWNrZ3JvdW5kOiNGRkZGRkY7IiB2ZXJzaW9uPSIxLjEiIHZpZXdCb3g9IjAgMCAyNjAwIDE3MjIiIHdpZHRoPSIyNjAwcHgiIHpvb21BbmRQYW49Im1hZ25pZnkiPjxkZWZzLz48Zz48IS0tY2x1c3RlciBWaW9sZW5jZURldGVjdGlvblN5c3RlbS0tPjxnIGlkPSJjbHVzdGVyX1Zpb2xlbmNlRGV0ZWN0aW9uU3lzdGVtIj48cmVjdCBmaWxsPSJub25lIiBoZWlnaHQ9IjEzODciIHJ4PSIyLjUiIHJ5PSIyLjUiIHN0eWxlPSJzdHJva2U6IzE4MTgxODtzdHJva2Utd2lkdGg6MS4wOyIgd2lkdGg9IjI1ODciIHg9IjciIHk9IjIzOCIvPjx0ZXh0IGZpbGw9IiMwMDAwMDAiIGZvbnQtZmFtaWx5PSJzYW5zLXNlcmlmIiBmb250LXNpemU9IjE0IiBmb250LXdlaWdodD0iYm9sZCIgbGVuZ3RoQWRqdXN0PSJzcGFjaW5nIiB0ZXh0TGVuZ3RoPSIxNjIiIHg9IjEyMTkuNSIgeT0iMjUzLjIzNDQiPlZpb2xlbmNlRGV0ZWN0aW9uU3lzdGVtPC90ZXh0PjwvZz48IS0tY2x1c3RlciBVc2VySW50ZXJmYWNlLS0+PGcgaWQ9ImNsdXN0ZXJfVXNlckludGVyZmFjZSI+PHJlY3QgZmlsbD0ibm9uZSIgaGVpZ2h0PSIxMzQiIHJ4PSIyLjUiIHJ5PSIyLjUiIHN0eWxlPSJzdHJva2U6IzE4MTgxODtzdHJva2Utd2lkdGg6MS4wOyIgd2lkdGg9IjU4My41IiB4PSIzOSIgeT0iODY4Ii8+PHRleHQgZmlsbD0iIzAwMDAwMCIgZm9udC1mYW1pbHk9InNhbnMtc2VyaWYiIGZvbnQtc2l6ZT0iMTQiIGZvbnQtd2VpZ2h0PSJib2xkIiBsZW5ndGhBZGp1c3Q9InNwYWNpbmciIHRleHRMZW5ndGg9IjkxIiB4PSIyODUuMjUiIHk9Ijg4My4yMzQ0Ij5Vc2VySW50ZXJmYWNlPC90ZXh0PjwvZz48IS0tY2x1c3RlciBWaWRlb1Byb2Nlc3NpbmctLT48ZyBpZD0iY2x1c3Rlcl9WaWRlb1Byb2Nlc3NpbmciPjxyZWN0IGZpbGw9Im5vbmUiIGhlaWdodD0iMTc4IiByeD0iMi41IiByeT0iMi41IiBzdHlsZT0ic3Ryb2tlOiMxODE4MTg7c3Ryb2tlLXdpZHRoOjEuMDsiIHdpZHRoPSI1NDEiIHg9IjQyOSIgeT0iMTI2MSIvPjx0ZXh0IGZpbGw9IiMwMDAwMDAiIGZvbnQtZmFtaWx5PSJzYW5zLXNlcmlmIiBmb250LXNpemU9IjE0IiBmb250LXdlaWdodD0iYm9sZCIgbGVuZ3RoQWRqdXN0PSJzcGFjaW5nIiB0ZXh0TGVuZ3RoPSIxMDUiIHg9IjY0NyIgeT0iMTI3Ni4yMzQ0Ij5WaWRlb1Byb2Nlc3Npbmc8L3RleHQ+PC9nPjwhLS1jbHVzdGVyIFZpZGVvQW5hbHl0aWNzLS0+PGcgaWQ9ImNsdXN0ZXJfVmlkZW9BbmFseXRpY3MiPjxyZWN0IGZpbGw9Im5vbmUiIGhlaWdodD0iMjU4IiByeD0iMi41IiByeT0iMi41IiBzdHlsZT0ic3Ryb2tlOiMxODE4MTg7c3Ryb2tlLXdpZHRoOjEuMDsiIHdpZHRoPSIxMTY1LjUiIHg9Ijc2MS41IiB5PSI1ODQiLz48dGV4dCBmaWxsPSIjMDAwMDAwIiBmb250LWZhbWlseT0ic2Fucy1zZXJpZiIgZm9udC1zaXplPSIxNCIgZm9udC13ZWlnaHQ9ImJvbGQiIGxlbmd0aEFkanVzdD0ic3BhY2luZyIgdGV4dExlbmd0aD0iOTgiIHg9IjEyOTUuMjUiIHk9IjU5OS4yMzQ0Ij5WaWRlb0FuYWx5dGljczwvdGV4dD48L2c+PCEtLWNsdXN0ZXIgQWxlcnRpbmctLT48ZyBpZD0iY2x1c3Rlcl9BbGVydGluZyI+PHJlY3QgZmlsbD0ibm9uZSIgaGVpZ2h0PSIyNTciIHJ4PSIyLjUiIHJ5PSIyLjUiIHN0eWxlPSJzdHJva2U6IzE4MTgxODtzdHJva2Utd2lkdGg6MS4wOyIgd2lkdGg9IjIxMSIgeD0iMTMzNSIgeT0iMjg3Ii8+PHRleHQgZmlsbD0iIzAwMDAwMCIgZm9udC1mYW1pbHk9InNhbnMtc2VyaWYiIGZvbnQtc2l6ZT0iMTQiIGZvbnQtd2VpZ2h0PSJib2xkIiBsZW5ndGhBZGp1c3Q9InNwYWNpbmciIHRleHRMZW5ndGg9IjU2IiB4PSIxNDEyLjUiIHk9IjMwMi4yMzQ0Ij5BbGVydGluZzwvdGV4dD48L2c+PCEtLWNsdXN0ZXIgSW5jaWRlbnRNYW5hZ2VtZW50LS0+PGcgaWQ9ImNsdXN0ZXJfSW5jaWRlbnRNYW5hZ2VtZW50Ij48cmVjdCBmaWxsPSJub25lIiBoZWlnaHQ9IjEyMCIgcng9IjIuNSIgcnk9IjIuNSIgc3R5bGU9InN0cm9rZTojMTgxODE4O3N0cm9rZS13aWR0aDoxLjA7IiB3aWR0aD0iNjE3IiB4PSIxMzM4IiB5PSI4ODIiLz48dGV4dCBmaWxsPSIjMDAwMDAwIiBmb250LWZhbWlseT0ic2Fucy1zZXJpZiIgZm9udC1zaXplPSIxNCIgZm9udC13ZWlnaHQ9ImJvbGQiIGxlbmd0aEFkanVzdD0ic3BhY2luZyIgdGV4dExlbmd0aD0iMTI3IiB4PSIxNTgzIiB5PSI4OTcuMjM0NCI+SW5jaWRlbnRNYW5hZ2VtZW50PC90ZXh0PjwvZz48IS0tY2x1c3RlciBNb2RlbFRyYWluaW5nLS0+PGcgaWQ9ImNsdXN0ZXJfTW9kZWxUcmFpbmluZyI+PHJlY3QgZmlsbD0ibm9uZSIgaGVpZ2h0PSIxNzkiIHJ4PSIyLjUiIHJ5PSIyLjUiIHN0eWxlPSJzdHJva2U6IzE4MTgxODtzdHJva2Utd2lkdGg6MS4wOyIgd2lkdGg9IjI0NzYuNSIgeD0iODUuNSIgeT0iMTA0MiIvPjx0ZXh0IGZpbGw9IiMwMDAwMDAiIGZvbnQtZmFtaWx5PSJzYW5zLXNlcmlmIiBmb250LXNpemU9IjE0IiBmb250LXdlaWdodD0iYm9sZCIgbGVuZ3RoQWRqdXN0PSJzcGFjaW5nIiB0ZXh0TGVuZ3RoPSI5MSIgeD0iMTI3OC4yNSIgeT0iMTA1Ny4yMzQ0Ij5Nb2RlbFRyYWluaW5nPC90ZXh0PjwvZz48IS0tY2x1c3RlciBDbG91ZEludGVncmF0aW9uLS0+PGcgaWQ9ImNsdXN0ZXJfQ2xvdWRJbnRlZ3JhdGlvbiI+PHJlY3QgZmlsbD0ibm9uZSIgaGVpZ2h0PSIxMTQiIHJ4PSIyLjUiIHJ5PSIyLjUiIHN0eWxlPSJzdHJva2U6IzE4MTgxODtzdHJva2Utd2lkdGg6MS4wOyIgd2lkdGg9IjgzOCIgeD0iNDQ0IiB5PSIxNDc5Ii8+PHRleHQgZmlsbD0iIzAwMDAwMCIgZm9udC1mYW1pbHk9InNhbnMtc2VyaWYiIGZvbnQtc2l6ZT0iMTQiIGZvbnQtd2VpZ2h0PSJib2xkIiBsZW5ndGhBZGp1c3Q9InNwYWNpbmciIHRleHRMZW5ndGg9IjExMiIgeD0iODA3IiB5PSIxNDk0LjIzNDQiPkNsb3VkSW50ZWdyYXRpb248L3RleHQ+PC9nPjxnIGlkPSJlbGVtX0luaXRpYXRlIFZpb2xlbmNlIERldGVjdGlvbiI+PGVsbGlwc2UgY3g9IjE3My4yNTQ3IiBjeT0iOTMzLjk1MDkiIGZpbGw9IiNGMUYxRjEiIHJ4PSIxMTAuMjU0NyIgcnk9IjI0LjQ1MDkiIHN0eWxlPSJzdHJva2U6IzE4MTgxODtzdHJva2Utd2lkdGg6MC41OyIvPjx0ZXh0IGZpbGw9IiMwMDAwMDAiIGZvbnQtZmFtaWx5PSJzYW5zLXNlcmlmIiBmb250LXNpemU9IjE0IiBsZW5ndGhBZGp1c3Q9InNwYWNpbmciIHRleHRMZW5ndGg9IjE4OSIgeD0iNzguNzU0NyIgeT0iOTM3LjY5MzEiPkluaXRpYXRlIFZpb2xlbmNlIERldGVjdGlvbjwvdGV4dD48L2c+PGcgaWQ9ImVsZW1fUmVxdWVzdCBWaWRlbyI+PGVsbGlwc2UgY3g9IjUzMi4xODM0IiBjeT0iOTM5LjIzNjciIGZpbGw9IiNGMUYxRjEiIHJ4PSI2Ni42ODM0IiByeT0iMTUuNzM2NyIgc3R5bGU9InN0cm9rZTojMTgxODE4O3N0cm9rZS13aWR0aDowLjU7Ii8+PHRleHQgZmlsbD0iIzAwMDAwMCIgZm9udC1mYW1pbHk9InNhbnMtc2VyaWYiIGZvbnQtc2l6ZT0iMTQiIGxlbmd0aEFkanVzdD0ic3BhY2luZyIgdGV4dExlbmd0aD0iOTEiIHg9IjQ4Ni42ODM0IiB5PSI5NDIuOTc4OSI+UmVxdWVzdCBWaWRlbzwvdGV4dD48L2c+PGcgaWQ9ImVsZW1fQ2FtZXJhIENvbnRyb2xsZXIiPjxlbGxpcHNlIGN4PSI1MzEuODkwMiIgY3k9IjEzOTcuMTc4IiBmaWxsPSIjRjFGMUYxIiByeD0iNzguODkwMiIgcnk9IjE4LjE3OCIgc3R5bGU9InN0cm9rZTojMTgxODE4O3N0cm9rZS13aWR0aDowLjU7Ii8+PHRleHQgZmlsbD0iIzAwMDAwMCIgZm9udC1mYW1pbHk9InNhbnMtc2VyaWYiIGZvbnQtc2l6ZT0iMTQiIGxlbmd0aEFkanVzdD0ic3BhY2luZyIgdGV4dExlbmd0aD0iMTIwIiB4PSI0NzEuODkwMiIgeT0iMTQwMC45MjAyIj5DYW1lcmEgQ29udHJvbGxlcjwvdGV4dD48L2c+PGcgaWQ9ImVsZW1fTWFuYWdlIENhbWVyYXMiPjxlbGxpcHNlIGN4PSI4NjYuOTU5NSIgY3k9IjEzOTcuODkxOSIgZmlsbD0iI0YxRjFGMSIgcng9IjY5Ljk1OTUiIHJ5PSIxNi4zOTE5IiBzdHlsZT0ic3Ryb2tlOiMxODE4MTg7c3Ryb2tlLXdpZHRoOjAuNTsiLz48dGV4dCBmaWxsPSIjMDAwMDAwIiBmb250LWZhbWlseT0ic2Fucy1zZXJpZiIgZm9udC1zaXplPSIxNCIgbGVuZ3RoQWRqdXN0PSJzcGFjaW5nIiB0ZXh0TGVuZ3RoPSI5OSIgeD0iODE3LjQ1OTUiIHk9IjE0MDEuNjM0MSI+TWFuYWdlIENhbWVyYXM8L3RleHQ+PC9nPjxnIGlkPSJlbGVtX0NvbmZpZ3VyZSBDYW1lcmFzIj48ZWxsaXBzZSBjeD0iODY2Ljg5MDIiIGN5PSIxMzI4LjE3OCIgZmlsbD0iI0YxRjFGMSIgcng9Ijc4Ljg5MDIiIHJ5PSIxOC4xNzgiIHN0eWxlPSJzdHJva2U6IzE4MTgxODtzdHJva2Utd2lkdGg6MC41OyIvPjx0ZXh0IGZpbGw9IiMwMDAwMDAiIGZvbnQtZmFtaWx5PSJzYW5zLXNlcmlmIiBmb250LXNpemU9IjE0IiBsZW5ndGhBZGp1c3Q9InNwYWNpbmciIHRleHRMZW5ndGg9IjEyMCIgeD0iODA2Ljg5MDIiIHk9IjEzMzEuOTIwMiI+Q29uZmlndXJlIENhbWVyYXM8L3RleHQ+PC9nPjxnIGlkPSJlbGVtX1JlY2VpdmUgVmlkZW8iPjxlbGxpcHNlIGN4PSI4NjcuMTgzNCIgY3k9Ijc4My4yMzY3IiBmaWxsPSIjRjFGMUYxIiByeD0iNjYuNjgzNCIgcnk9IjE1LjczNjciIHN0eWxlPSJzdHJva2U6IzE4MTgxODtzdHJva2Utd2lkdGg6MC41OyIvPjx0ZXh0IGZpbGw9IiMwMDAwMDAiIGZvbnQtZmFtaWx5PSJzYW5zLXNlcmlmIiBmb250LXNpemU9IjE0IiBsZW5ndGhBZGp1c3Q9InNwYWNpbmciIHRleHRMZW5ndGg9IjkxIiB4PSI4MjEuNjgzNCIgeT0iNzg2Ljk3ODkiPlJlY2VpdmUgVmlkZW88L3RleHQ+PC9nPjxnIGlkPSJlbGVtX1ByZXByb2Nlc3MgVmlkZW8iPjxlbGxpcHNlIGN4PSI4NjYuOTM4NCIgY3k9IjY0Mi45ODc3IiBmaWxsPSIjRjFGMUYxIiByeD0iNzUuNDM4NCIgcnk9IjE3LjQ4NzciIHN0eWxlPSJzdHJva2U6IzE4MTgxODtzdHJva2Utd2lkdGg6MC41OyIvPjx0ZXh0IGZpbGw9IiMwMDAwMDAiIGZvbnQtZmFtaWx5PSJzYW5zLXNlcmlmIiBmb250LXNpemU9IjE0IiBsZW5ndGhBZGp1c3Q9InNwYWNpbmciIHRleHRMZW5ndGg9IjExMiIgeD0iODEwLjkzODQiIHk9IjY0Ni43Mjk5Ij5QcmVwcm9jZXNzIFZpZGVvPC90ZXh0PjwvZz48ZyBpZD0iZWxlbV9FeHRyYWN0IEZlYXR1cmVzIj48ZWxsaXBzZSBjeD0iMTE4NS40Mzg0IiBjeT0iNzEwLjk4NzciIGZpbGw9IiNGMUYxRjEiIHJ4PSI3NS40Mzg0IiByeT0iMTcuNDg3NyIgc3R5bGU9InN0cm9rZTojMTgxODE4O3N0cm9rZS13aWR0aDowLjU7Ii8+PHRleHQgZmlsbD0iIzAwMDAwMCIgZm9udC1mYW1pbHk9InNhbnMtc2VyaWYiIGZvbnQtc2l6ZT0iMTQiIGxlbmd0aEFkanVzdD0ic3BhY2luZyIgdGV4dExlbmd0aD0iMTEyIiB4PSIxMTI5LjQzODQiIHk9IjcxNC43Mjk5Ij5FeHRyYWN0IEZlYXR1cmVzPC90ZXh0PjwvZz48ZyBpZD0iZWxlbV9GZWF0dXJlIEV4dHJhY3Rpb24gRW5naW5lIj48ZWxsaXBzZSBjeD0iMTQ0MC43MjUyIiBjeT0iNjc1LjE0NSIgZmlsbD0iI0YxRjFGMSIgcng9IjEwMy43MjUyIiByeT0iMjMuMTQ1IiBzdHlsZT0ic3Ryb2tlOiMxODE4MTg7c3Ryb2tlLXdpZHRoOjAuNTsiLz48dGV4dCBmaWxsPSIjMDAwMDAwIiBmb250LWZhbWlseT0ic2Fucy1zZXJpZiIgZm9udC1zaXplPSIxNCIgbGVuZ3RoQWRqdXN0PSJzcGFjaW5nIiB0ZXh0TGVuZ3RoPSIxNzUiIHg9IjEzNTMuMjI1MiIgeT0iNjc4Ljg4NzIiPkZlYXR1cmUgRXh0cmFjdGlvbiBFbmdpbmU8L3RleHQ+PC9nPjxnIGlkPSJlbGVtX0ZlYXR1cmUgRGF0YWJhc2UiPjxlbGxpcHNlIGN4PSIxODI3LjQzODQiIGN5PSI2NDcuOTg3NyIgZmlsbD0iI0YxRjFGMSIgcng9Ijc1LjQzODQiIHJ5PSIxNy40ODc3IiBzdHlsZT0ic3Ryb2tlOiMxODE4MTg7c3Ryb2tlLXdpZHRoOjAuNTsiLz48dGV4dCBmaWxsPSIjMDAwMDAwIiBmb250LWZhbWlseT0ic2Fucy1zZXJpZiIgZm9udC1zaXplPSIxNCIgbGVuZ3RoQWRqdXN0PSJzcGFjaW5nIiB0ZXh0TGVuZ3RoPSIxMTIiIHg9IjE3NzEuNDM4NCIgeT0iNjUxLjcyOTkiPkZlYXR1cmUgRGF0YWJhc2U8L3RleHQ+PC9nPjxnIGlkPSJlbGVtX1Zpb2xlbmNlIERldGVjdGlvbiI+PGVsbGlwc2UgY3g9Ijg2Ny4wMTMyIiBjeT0iNzE0LjIwMjYiIGZpbGw9IiNGMUYxRjEiIHJ4PSI4MS41MTMyIiByeT0iMTguNzAyNiIgc3R5bGU9InN0cm9rZTojMTgxODE4O3N0cm9rZS13aWR0aDowLjU7Ii8+PHRleHQgZmlsbD0iIzAwMDAwMCIgZm9udC1mYW1pbHk9InNhbnMtc2VyaWYiIGZvbnQtc2l6ZT0iMTQiIGxlbmd0aEFkanVzdD0ic3BhY2luZyIgdGV4dExlbmd0aD0iMTI2IiB4PSI4MDQuMDEzMiIgeT0iNzE3Ljk0NDgiPlZpb2xlbmNlIERldGVjdGlvbjwvdGV4dD48L2c+PGcgaWQ9ImVsZW1fR2VuZXJhdGUgQWxlcnQiPjxlbGxpcHNlIGN4PSIxMTg1LjU0NTYiIGN5PSI2NDEuODA5MSIgZmlsbD0iI0YxRjFGMSIgcng9IjY5LjU0NTYiIHJ5PSIxNi4zMDkxIiBzdHlsZT0ic3Ryb2tlOiMxODE4MTg7c3Ryb2tlLXdpZHRoOjAuNTsiLz48dGV4dCBmaWxsPSIjMDAwMDAwIiBmb250LWZhbWlseT0ic2Fucy1zZXJpZiIgZm9udC1zaXplPSIxNCIgbGVuZ3RoQWRqdXN0PSJzcGFjaW5nIiB0ZXh0TGVuZ3RoPSI5OCIgeD0iMTEzNi41NDU2IiB5PSI2NDUuNTUxMyI+R2VuZXJhdGUgQWxlcnQ8L3RleHQ+PC9nPjxnIGlkPSJlbGVtX1VwZGF0ZSBJbmNpZGVudCBMb2ciPjxlbGxpcHNlIGN4PSIxMTg1LjYwNjIiIGN5PSI3ODIuODIxMiIgZmlsbD0iI0YxRjFGMSIgcng9Ijg0LjYwNjIiIHJ5PSIxOS4zMjEyIiBzdHlsZT0ic3Ryb2tlOiMxODE4MTg7c3Ryb2tlLXdpZHRoOjAuNTsiLz48dGV4dCBmaWxsPSIjMDAwMDAwIiBmb250LWZhbWlseT0ic2Fucy1zZXJpZiIgZm9udC1zaXplPSIxNCIgbGVuZ3RoQWRqdXN0PSJzcGFjaW5nIiB0ZXh0TGVuZ3RoPSIxMzMiIHg9IjExMTkuMTA2MiIgeT0iNzg2LjU2MzQiPlVwZGF0ZSBJbmNpZGVudCBMb2c8L3RleHQ+PC9nPjxnIGlkPSJlbGVtX0FsZXJ0IEF1dGhvcml0aWVzIj48ZWxsaXBzZSBjeD0iMTQ0MC40NTU4IiBjeT0iNTAyLjA5MTIiIGZpbGw9IiNGMUYxRjEiIHJ4PSI3OC40NTU4IiByeT0iMTguMDkxMiIgc3R5bGU9InN0cm9rZTojMTgxODE4O3N0cm9rZS13aWR0aDowLjU7Ii8+PHRleHQgZmlsbD0iIzAwMDAwMCIgZm9udC1mYW1pbHk9InNhbnMtc2VyaWYiIGZvbnQtc2l6ZT0iMTQiIGxlbmd0aEFkanVzdD0ic3BhY2luZyIgdGV4dExlbmd0aD0iMTE5IiB4PSIxMzgwLjk1NTgiIHk9IjUwNS44MzMzIj5BbGVydCBBdXRob3JpdGllczwvdGV4dD48L2c+PGcgaWQ9ImVsZW1fU2VjdXJpdHkgUGVyc29ubmVsIj48ZWxsaXBzZSBjeD0iMTQ0MC41MTMyIiBjeT0iMzY2LjIwMjYiIGZpbGw9IiNGMUYxRjEiIHJ4PSI4MS41MTMyIiByeT0iMTguNzAyNiIgc3R5bGU9InN0cm9rZTojMTgxODE4O3N0cm9rZS13aWR0aDowLjU7Ii8+PHRleHQgZmlsbD0iIzAwMDAwMCIgZm9udC1mYW1pbHk9InNhbnMtc2VyaWYiIGZvbnQtc2l6ZT0iMTQiIGxlbmd0aEFkanVzdD0ic3BhY2luZyIgdGV4dExlbmd0aD0iMTI2IiB4PSIxMzc3LjUxMzIiIHk9IjM2OS45NDQ4Ij5TZWN1cml0eSBQZXJzb25uZWw8L3RleHQ+PC9nPjxnIGlkPSJlbGVtX05vdGlmeSBVc2VyIj48ZWxsaXBzZSBjeD0iMTQ0MC42Njg1IiBjeT0iNDM0LjEzMzciIGZpbGw9IiNGMUYxRjEiIHJ4PSI2MS4xNjg1IiByeT0iMTQuNjMzNyIgc3R5bGU9InN0cm9rZTojMTgxODE4O3N0cm9rZS13aWR0aDowLjU7Ii8+PHRleHQgZmlsbD0iIzAwMDAwMCIgZm9udC1mYW1pbHk9InNhbnMtc2VyaWYiIGZvbnQtc2l6ZT0iMTQiIGxlbmd0aEFkanVzdD0ic3BhY2luZyIgdGV4dExlbmd0aD0iNzciIHg9IjE0MDIuMTY4NSIgeT0iNDM3Ljg3NTkiPk5vdGlmeSBVc2VyPC90ZXh0PjwvZz48ZyBpZD0iZWxlbV9JbmNpZGVudCBEYXRhYmFzZSI+PGVsbGlwc2UgY3g9IjE0NDAuNDU1OCIgY3k9Ijk0MS4wOTEyIiBmaWxsPSIjRjFGMUYxIiByeD0iNzguNDU1OCIgcnk9IjE4LjA5MTIiIHN0eWxlPSJzdHJva2U6IzE4MTgxODtzdHJva2Utd2lkdGg6MC41OyIvPjx0ZXh0IGZpbGw9IiMwMDAwMDAiIGZvbnQtZmFtaWx5PSJzYW5zLXNlcmlmIiBmb250LXNpemU9IjE0IiBsZW5ndGhBZGp1c3Q9InNwYWNpbmciIHRleHRMZW5ndGg9IjExOSIgeD0iMTM4MC45NTU4IiB5PSI5NDQuODMzMyI+SW5jaWRlbnQgRGF0YWJhc2U8L3RleHQ+PC9nPjxnIGlkPSJlbGVtX1JldHJpZXZlIEluY2lkZW50IEhpc3RvcnkiPjxlbGxpcHNlIGN4PSIxODI3LjcyNTIiIGN5PSI5NDYuMTQ1IiBmaWxsPSIjRjFGMUYxIiByeD0iMTAzLjcyNTIiIHJ5PSIyMy4xNDUiIHN0eWxlPSJzdHJva2U6IzE4MTgxODtzdHJva2Utd2lkdGg6MC41OyIvPjx0ZXh0IGZpbGw9IiMwMDAwMDAiIGZvbnQtZmFtaWx5PSJzYW5zLXNlcmlmIiBmb250LXNpemU9IjE0IiBsZW5ndGhBZGp1c3Q9InNwYWNpbmciIHRleHRMZW5ndGg9IjE3NSIgeD0iMTc0MC4yMjUyIiB5PSI5NDkuODg3MiI+UmV0cmlldmUgSW5jaWRlbnQgSGlzdG9yeTwvdGV4dD48L2c+PGcgaWQ9ImVsZW1fVHJhaW4gTW9kZWwiPjxlbGxpcHNlIGN4PSIxNzMuNjY4NSIgY3k9IjExNjMuMTMzNyIgZmlsbD0iI0YxRjFGMSIgcng9IjYxLjE2ODUiIHJ5PSIxNC42MzM3IiBzdHlsZT0ic3Ryb2tlOiMxODE4MTg7c3Ryb2tlLXdpZHRoOjAuNTsiLz48dGV4dCBmaWxsPSIjMDAwMDAwIiBmb250LWZhbWlseT0ic2Fucy1zZXJpZiIgZm9udC1zaXplPSIxNCIgbGVuZ3RoQWRqdXN0PSJzcGFjaW5nIiB0ZXh0TGVuZ3RoPSI3NyIgeD0iMTM1LjE2ODUiIHk9IjExNjYuODc1OSI+VHJhaW4gTW9kZWw8L3RleHQ+PC9nPjxnIGlkPSJlbGVtX1VwZGF0ZSBNb2RlbCI+PGVsbGlwc2UgY3g9IjE3My4zODc4IiBjeT0iMTA5OC4xNzc2IiBmaWxsPSIjRjFGMUYxIiByeD0iNjMuODg3OCIgcnk9IjE1LjE3NzYiIHN0eWxlPSJzdHJva2U6IzE4MTgxODtzdHJva2Utd2lkdGg6MC41OyIvPjx0ZXh0IGZpbGw9IiMwMDAwMDAiIGZvbnQtZmFtaWx5PSJzYW5zLXNlcmlmIiBmb250LXNpemU9IjE0IiBsZW5ndGhBZGp1c3Q9InNwYWNpbmciIHRleHRMZW5ndGg9Ijg0IiB4PSIxMzEuMzg3OCIgeT0iMTEwMS45MTk3Ij5VcGRhdGUgTW9kZWw8L3RleHQ+PC9nPjxnIGlkPSJlbGVtX1RyYWluaW5nIERhdGEiPjxlbGxpcHNlIGN4PSI1MzIuMTgzNCIgY3k9IjExNjEuMjM2NyIgZmlsbD0iI0YxRjFGMSIgcng9IjY2LjY4MzQiIHJ5PSIxNS43MzY3IiBzdHlsZT0ic3Ryb2tlOiMxODE4MTg7c3Ryb2tlLXdpZHRoOjAuNTsiLz48dGV4dCBmaWxsPSIjMDAwMDAwIiBmb250LWZhbWlseT0ic2Fucy1zZXJpZiIgZm9udC1zaXplPSIxNCIgbGVuZ3RoQWRqdXN0PSJzcGFjaW5nIiB0ZXh0TGVuZ3RoPSI5MSIgeD0iNDg2LjY4MzQiIHk9IjExNjQuOTc4OSI+VHJhaW5pbmcgRGF0YTwvdGV4dD48L2c+PGcgaWQ9ImVsZW1fRGF0YSBQcmVwYXJhdGlvbiI+PGVsbGlwc2UgY3g9Ijg2Ni45Mzg0IiBjeT0iMTE1OC45ODc3IiBmaWxsPSIjRjFGMUYxIiByeD0iNzUuNDM4NCIgcnk9IjE3LjQ4NzciIHN0eWxlPSJzdHJva2U6IzE4MTgxODtzdHJva2Utd2lkdGg6MC41OyIvPjx0ZXh0IGZpbGw9IiMwMDAwMDAiIGZvbnQtZmFtaWx5PSJzYW5zLXNlcmlmIiBmb250LXNpemU9IjE0IiBsZW5ndGhBZGp1c3Q9InNwYWNpbmciIHRleHRMZW5ndGg9IjExMiIgeD0iODEwLjkzODQiIHk9IjExNjIuNzI5OSI+RGF0YSBQcmVwYXJhdGlvbjwvdGV4dD48L2c+PGcgaWQ9ImVsZW1fRGF0YSBDbGVhbmluZyI+PGVsbGlwc2UgY3g9IjExODUuNjgzNCIgY3k9IjExNTkuMjM2NyIgZmlsbD0iI0YxRjFGMSIgcng9IjY2LjY4MzQiIHJ5PSIxNS43MzY3IiBzdHlsZT0ic3Ryb2tlOiMxODE4MTg7c3Ryb2tlLXdpZHRoOjAuNTsiLz48dGV4dCBmaWxsPSIjMDAwMDAwIiBmb250LWZhbWlseT0ic2Fucy1zZXJpZiIgZm9udC1zaXplPSIxNCIgbGVuZ3RoQWRqdXN0PSJzcGFjaW5nIiB0ZXh0TGVuZ3RoPSI5MSIgeD0iMTE0MC4xODM0IiB5PSIxMTYyLjk3ODkiPkRhdGEgQ2xlYW5pbmc8L3RleHQ+PC9nPjxnIGlkPSJlbGVtX0ZlYXR1cmUgRW5naW5lZXJpbmciPjxlbGxpcHNlIGN4PSIxNDQwLjYwNjIiIGN5PSIxMTU2LjgyMTIiIGZpbGw9IiNGMUYxRjEiIHJ4PSI4NC42MDYyIiByeT0iMTkuMzIxMiIgc3R5bGU9InN0cm9rZTojMTgxODE4O3N0cm9rZS13aWR0aDowLjU7Ii8+PHRleHQgZmlsbD0iIzAwMDAwMCIgZm9udC1mYW1pbHk9InNhbnMtc2VyaWYiIGZvbnQtc2l6ZT0iMTQiIGxlbmd0aEFkanVzdD0ic3BhY2luZyIgdGV4dExlbmd0aD0iMTMzIiB4PSIxMzc0LjEwNjIiIHk9IjExNjAuNTYzNCI+RmVhdHVyZSBFbmdpbmVlcmluZzwvdGV4dD48L2c+PGcgaWQ9ImVsZW1fTW9kZWwgVHJhaW5pbmcgQWxnb3JpdGhtIj48ZWxsaXBzZSBjeD0iMTgyNy40NDY4IiBjeT0iMTE1NS4wODk0IiBmaWxsPSIjRjFGMUYxIiByeD0iMTAwLjk0NjgiIHJ5PSIyMi41ODk0IiBzdHlsZT0ic3Ryb2tlOiMxODE4MTg7c3Ryb2tlLXdpZHRoOjAuNTsiLz48dGV4dCBmaWxsPSIjMDAwMDAwIiBmb250LWZhbWlseT0ic2Fucy1zZXJpZiIgZm9udC1zaXplPSIxNCIgbGVuZ3RoQWRqdXN0PSJzcGFjaW5nIiB0ZXh0TGVuZ3RoPSIxNjkiIHg9IjE3NDIuOTQ2OCIgeT0iMTE1OC44MzE1Ij5Nb2RlbCBUcmFpbmluZyBBbGdvcml0aG08L3RleHQ+PC9nPjxnIGlkPSJlbGVtX1RyYWluZWQgTW9kZWwiPjxlbGxpcHNlIGN4PSIyMDc2LjY4MzQiIGN5PSIxMTU1LjIzNjciIGZpbGw9IiNGMUYxRjEiIHJ4PSI2Ni42ODM0IiByeT0iMTUuNzM2NyIgc3R5bGU9InN0cm9rZTojMTgxODE4O3N0cm9rZS13aWR0aDowLjU7Ii8+PHRleHQgZmlsbD0iIzAwMDAwMCIgZm9udC1mYW1pbHk9InNhbnMtc2VyaWYiIGZvbnQtc2l6ZT0iMTQiIGxlbmd0aEFkanVzdD0ic3BhY2luZyIgdGV4dExlbmd0aD0iOTEiIHg9IjIwMzEuMTgzNCIgeT0iMTE1OC45Nzg5Ij5UcmFpbmVkIE1vZGVsPC90ZXh0PjwvZz48ZyBpZD0iZWxlbV9Nb2RlbCBFdmFsdWF0aW9uIj48ZWxsaXBzZSBjeD0iMjI3OS40Mzg0IiBjeT0iMTE1NC45ODc3IiBmaWxsPSIjRjFGMUYxIiByeD0iNzUuNDM4NCIgcnk9IjE3LjQ4NzciIHN0eWxlPSJzdHJva2U6IzE4MTgxODtzdHJva2Utd2lkdGg6MC41OyIvPjx0ZXh0IGZpbGw9IiMwMDAwMDAiIGZvbnQtZmFtaWx5PSJzYW5zLXNlcmlmIiBmb250LXNpemU9IjE0IiBsZW5ndGhBZGp1c3Q9InNwYWNpbmciIHRleHRMZW5ndGg9IjExMiIgeD0iMjIyMy40Mzg0IiB5PSIxMTU4LjcyOTkiPk1vZGVsIEV2YWx1YXRpb248L3RleHQ+PC9nPjxnIGlkPSJlbGVtX0ZpbmUtdHVuaW5nIj48ZWxsaXBzZSBjeD0iMjQ3Ny4xNjg1IiBjeT0iMTE1NS4xMzM3IiBmaWxsPSIjRjFGMUYxIiByeD0iNjEuMTY4NSIgcnk9IjE0LjYzMzciIHN0eWxlPSJzdHJva2U6IzE4MTgxODtzdHJva2Utd2lkdGg6MC41OyIvPjx0ZXh0IGZpbGw9IiMwMDAwMDAiIGZvbnQtZmFtaWx5PSJzYW5zLXNlcmlmIiBmb250LXNpemU9IjE0IiBsZW5ndGhBZGp1c3Q9InNwYWNpbmciIHRleHRMZW5ndGg9Ijc3IiB4PSIyNDM4LjY2ODUiIHk9IjExNTguODc1OSI+RmluZS10dW5pbmc8L3RleHQ+PC9nPjxnIGlkPSJlbGVtX0RlcGxveSBNb2RlbCI+PGVsbGlwc2UgY3g9IjUzMS44ODc4IiBjeT0iMTUzNS4xNzc2IiBmaWxsPSIjRjFGMUYxIiByeD0iNjMuODg3OCIgcnk9IjE1LjE3NzYiIHN0eWxlPSJzdHJva2U6IzE4MTgxODtzdHJva2Utd2lkdGg6MC41OyIvPjx0ZXh0IGZpbGw9IiMwMDAwMDAiIGZvbnQtZmFtaWx5PSJzYW5zLXNlcmlmIiBmb250LXNpemU9IjE0IiBsZW5ndGhBZGp1c3Q9InNwYWNpbmciIHRleHRMZW5ndGg9Ijg0IiB4PSI0ODkuODg3OCIgeT0iMTUzOC45MTk3Ij5EZXBsb3kgTW9kZWw8L3RleHQ+PC9nPjxnIGlkPSJlbGVtX01vbml0b3IgTW9kZWwiPjxlbGxpcHNlIGN4PSI4NjcuMTgzNCIgY3k9IjE1MzcuMjM2NyIgZmlsbD0iI0YxRjFGMSIgcng9IjY2LjY4MzQiIHJ5PSIxNS43MzY3IiBzdHlsZT0ic3Ryb2tlOiMxODE4MTg7c3Ryb2tlLXdpZHRoOjAuNTsiLz48dGV4dCBmaWxsPSIjMDAwMDAwIiBmb250LWZhbWlseT0ic2Fucy1zZXJpZiIgZm9udC1zaXplPSIxNCIgbGVuZ3RoQWRqdXN0PSJzcGFjaW5nIiB0ZXh0TGVuZ3RoPSI5MSIgeD0iODIxLjY4MzQiIHk9IjE1NDAuOTc4OSI+TW9uaXRvciBNb2RlbDwvdGV4dD48L2c+PGcgaWQ9ImVsZW1fU2NhbGUgUmVzb3VyY2VzIj48ZWxsaXBzZSBjeD0iMTE4NS40NjYzIiBjeT0iMTUzNi44OTMzIiBmaWxsPSIjRjFGMUYxIiByeD0iNzIuNDY2MyIgcnk9IjE2Ljg5MzMiIHN0eWxlPSJzdHJva2U6IzE4MTgxODtzdHJva2Utd2lkdGg6MC41OyIvPjx0ZXh0IGZpbGw9IiMwMDAwMDAiIGZvbnQtZmFtaWx5PSJzYW5zLXNlcmlmIiBmb250LXNpemU9IjE0IiBsZW5ndGhBZGp1c3Q9InNwYWNpbmciIHRleHRMZW5ndGg9IjEwNSIgeD0iMTEzMi45NjYzIiB5PSIxNTQwLjYzNTUiPlNjYWxlIFJlc291cmNlczwvdGV4dD48L2c+PCEtLWVudGl0eSBVc2VyLS0+PGcgaWQ9ImVsZW1fVXNlciI+PGVsbGlwc2UgY3g9IjE4MjcuNSIgY3k9IjE1NiIgZmlsbD0iI0YxRjFGMSIgcng9IjgiIHJ5PSI4IiBzdHlsZT0ic3Ryb2tlOiMxODE4MTg7c3Ryb2tlLXdpZHRoOjAuNTsiLz48cGF0aCBkPSJNMTgyNy41LDE2NCBMMTgyNy41LDE5MSBNMTgxNC41LDE3MiBMMTg0MC41LDE3MiBNMTgyNy41LDE5MSBMMTgxNC41LDIwNiBNMTgyNy41LDE5MSBMMTg0MC41LDIwNiAiIGZpbGw9Im5vbmUiIHN0eWxlPSJzdHJva2U6IzE4MTgxODtzdHJva2Utd2lkdGg6MC41OyIvPjx0ZXh0IGZpbGw9IiMwMDAwMDAiIGZvbnQtZmFtaWx5PSJzYW5zLXNlcmlmIiBmb250LXNpemU9IjE0IiBsZW5ndGhBZGp1c3Q9InNwYWNpbmciIHRleHRMZW5ndGg9IjI4IiB4PSIxODEzLjUiIHk9IjIyMC43MzQ0Ij5Vc2VyPC90ZXh0PjwvZz48IS0tZW50aXR5IFN1cnZlaWxsYW5jZUNhbWVyYS0tPjxnIGlkPSJlbGVtX1N1cnZlaWxsYW5jZUNhbWVyYSI+PGVsbGlwc2UgY3g9IjE3My41IiBjeT0iMTY0OSIgZmlsbD0iI0YxRjFGMSIgcng9IjgiIHJ5PSI4IiBzdHlsZT0ic3Ryb2tlOiMxODE4MTg7c3Ryb2tlLXdpZHRoOjAuNTsiLz48cGF0aCBkPSJNMTczLjUsMTY1NyBMMTczLjUsMTY4NCBNMTYwLjUsMTY2NSBMMTg2LjUsMTY2NSBNMTczLjUsMTY4NCBMMTYwLjUsMTY5OSBNMTczLjUsMTY4NCBMMTg2LjUsMTY5OSAiIGZpbGw9Im5vbmUiIHN0eWxlPSJzdHJva2U6IzE4MTgxODtzdHJva2Utd2lkdGg6MC41OyIvPjx0ZXh0IGZpbGw9IiMwMDAwMDAiIGZvbnQtZmFtaWx5PSJzYW5zLXNlcmlmIiBmb250LXNpemU9IjE0IiBsZW5ndGhBZGp1c3Q9InNwYWNpbmciIHRleHRMZW5ndGg9IjEyNyIgeD0iMTEwIiB5PSIxNzEzLjczNDQiPlN1cnZlaWxsYW5jZUNhbWVyYTwvdGV4dD48L2c+PCEtLWVudGl0eSBTZWN1cml0eS0tPjxnIGlkPSJlbGVtX1NlY3VyaXR5Ij48ZWxsaXBzZSBjeD0iMTE4NS41IiBjeT0iMTU2IiBmaWxsPSIjRjFGMUYxIiByeD0iOCIgcnk9IjgiIHN0eWxlPSJzdHJva2U6IzE4MTgxODtzdHJva2Utd2lkdGg6MC41OyIvPjxwYXRoIGQ9Ik0xMTg1LjUsMTY0IEwxMTg1LjUsMTkxIE0xMTcyLjUsMTcyIEwxMTk4LjUsMTcyIE0xMTg1LjUsMTkxIEwxMTcyLjUsMjA2IE0xMTg1LjUsMTkxIEwxMTk4LjUsMjA2ICIgZmlsbD0ibm9uZSIgc3R5bGU9InN0cm9rZTojMTgxODE4O3N0cm9rZS13aWR0aDowLjU7Ii8+PHRleHQgZmlsbD0iIzAwMDAwMCIgZm9udC1mYW1pbHk9InNhbnMtc2VyaWYiIGZvbnQtc2l6ZT0iMTQiIGxlbmd0aEFkanVzdD0ic3BhY2luZyIgdGV4dExlbmd0aD0iNTYiIHg9IjExNTcuNSIgeT0iMjIwLjczNDQiPlNlY3VyaXR5PC90ZXh0PjwvZz48IS0tZW50aXR5IEFJX1Zpb2xlbmNlX0RldGVjdGlvbi0tPjxnIGlkPSJlbGVtX0FJX1Zpb2xlbmNlX0RldGVjdGlvbiI+PGVsbGlwc2UgY3g9IjUzMiIgY3k9IjE1NiIgZmlsbD0iI0YxRjFGMSIgcng9IjgiIHJ5PSI4IiBzdHlsZT0ic3Ryb2tlOiMxODE4MTg7c3Ryb2tlLXdpZHRoOjAuNTsiLz48cGF0aCBkPSJNNTMyLDE2NCBMNTMyLDE5MSBNNTE5LDE3MiBMNTQ1LDE3MiBNNTMyLDE5MSBMNTE5LDIwNiBNNTMyLDE5MSBMNTQ1LDIwNiAiIGZpbGw9Im5vbmUiIHN0eWxlPSJzdHJva2U6IzE4MTgxODtzdHJva2Utd2lkdGg6MC41OyIvPjx0ZXh0IGZpbGw9IiMwMDAwMDAiIGZvbnQtZmFtaWx5PSJzYW5zLXNlcmlmIiBmb250LXNpemU9IjE0IiBsZW5ndGhBZGp1c3Q9InNwYWNpbmciIHRleHRMZW5ndGg9IjE0NyIgeD0iNDU4LjUiIHk9IjIyMC43MzQ0Ij5BSV9WaW9sZW5jZV9EZXRlY3Rpb248L3RleHQ+PC9nPjwhLS1lbnRpdHkgVmlkZW9TdG9yYWdlLS0+PGcgaWQ9ImVsZW1fVmlkZW9TdG9yYWdlIj48cGF0aCBkPSJNMTEzMy41LDE2NTEgQzExMzMuNSwxNjQxIDExODUuNSwxNjQxIDExODUuNSwxNjQxIEMxMTg1LjUsMTY0MSAxMjM3LjUsMTY0MSAxMjM3LjUsMTY1MSBMMTIzNy41LDE2NzQuOTg0NCBDMTIzNy41LDE2ODQuOTg0NCAxMTg1LjUsMTY4NC45ODQ0IDExODUuNSwxNjg0Ljk4NDQgQzExODUuNSwxNjg0Ljk4NDQgMTEzMy41LDE2ODQuOTg0NCAxMTMzLjUsMTY3NC45ODQ0IEwxMTMzLjUsMTY1MSAiIGZpbGw9IiNGMUYxRjEiIHN0eWxlPSJzdHJva2U6IzE4MTgxODtzdHJva2Utd2lkdGg6MC41OyIvPjxwYXRoIGQ9Ik0xMTMzLjUsMTY1MSBDMTEzMy41LDE2NjEgMTE4NS41LDE2NjEgMTE4NS41LDE2NjEgQzExODUuNSwxNjYxIDEyMzcuNSwxNjYxIDEyMzcuNSwxNjUxICIgZmlsbD0ibm9uZSIgc3R5bGU9InN0cm9rZTojMTgxODE4O3N0cm9rZS13aWR0aDowLjU7Ii8+PHRleHQgZmlsbD0iIzAwMDAwMCIgZm9udC1mYW1pbHk9InNhbnMtc2VyaWYiIGZvbnQtc2l6ZT0iMTQiIGxlbmd0aEFkanVzdD0ic3BhY2luZyIgdGV4dExlbmd0aD0iODQiIHg9IjExNDMuNSIgeT0iMTY3OC4yMzQ0Ij5WaWRlb1N0b3JhZ2U8L3RleHQ+PC9nPjwhLS1saW5rIFVzZXIgdG8gSW5pdGlhdGUgVmlvbGVuY2UgRGV0ZWN0aW9uLS0+PGcgaWQ9ImxpbmtfVXNlcl9Jbml0aWF0ZSBWaW9sZW5jZSBEZXRlY3Rpb24iPjxwYXRoIGQ9Ik0xODEzLjIzLDE3My41MyBDMTc2Ni4xLDEzNC4wMiAxNjAxLjA5LDYgMTQ0MS41LDYgQzUzMSw2IDUzMSw2IDUzMSw2IEMzMzEuNjYsNiAyMDEuOCw3NjEuNiAxNzguMzMsOTA5LjE4ICIgZmlsbD0ibm9uZSIgaWQ9IlVzZXItSW5pdGlhdGUgVmlvbGVuY2UgRGV0ZWN0aW9uIiBzdHlsZT0ic3Ryb2tlOiMxODE4MTg7c3Ryb2tlLXdpZHRoOjEuMDsiLz48L2c+PCEtLWxpbmsgSW5pdGlhdGUgVmlvbGVuY2UgRGV0ZWN0aW9uIHRvIFJlcXVlc3QgVmlkZW8tLT48ZyBpZD0ibGlua19Jbml0aWF0ZSBWaW9sZW5jZSBEZXRlY3Rpb25fUmVxdWVzdCBWaWRlbyI+PHBhdGggZD0iTTI4My44OCw5MzUuNTMgQzM0My4yNCw5MzYuMzcgNDA4LjY0MDYsOTM3LjI4NjEgNDU5LjM5MDYsOTM3Ljk5NjEgIiBmaWxsPSJub25lIiBpZD0iSW5pdGlhdGUgVmlvbGVuY2UgRGV0ZWN0aW9uLXRvLVJlcXVlc3QgVmlkZW8iIHN0eWxlPSJzdHJva2U6IzE4MTgxODtzdHJva2Utd2lkdGg6MS4wOyIvPjxwb2x5Z29uIGZpbGw9IiMxODE4MTgiIHBvaW50cz0iNDY1LjM5LDkzOC4wOCw0NTYuNDQ2OCw5MzMuOTU0NSw0NjAuMzkwNSw5MzguMDEwMSw0NTYuMzM0OSw5NDEuOTUzNyw0NjUuMzksOTM4LjA4IiBzdHlsZT0ic3Ryb2tlOiMxODE4MTg7c3Ryb2tlLXdpZHRoOjEuMDsiLz48L2c+PCEtLWxpbmsgUmVxdWVzdCBWaWRlbyB0byBTdXJ2ZWlsbGFuY2VDYW1lcmEtLT48ZyBpZD0ibGlua19SZXF1ZXN0IFZpZGVvX1N1cnZlaWxsYW5jZUNhbWVyYSI+PHBhdGggZD0iTTUxMy42LDk1My45NSBDNDg4LjQ1LDk3Ni4zMiA0NDEuODMsMTAyMC44NiA0MTMsMTA2NyBDMjg4LjU1LDEyNjYuMTggMjExLjMzNDMsMTUzNS4yMDQyIDE4NS40MzQzLDE2MzQuNTA0MiAiIGZpbGw9Im5vbmUiIGlkPSJSZXF1ZXN0IFZpZGVvLXRvLVN1cnZlaWxsYW5jZUNhbWVyYSIgc3R5bGU9InN0cm9rZTojMTgxODE4O3N0cm9rZS13aWR0aDoxLjA7Ii8+PHBvbHlnb24gZmlsbD0iIzE4MTgxOCIgcG9pbnRzPSIxODMuOTIsMTY0MC4zMSwxOTAuMDYyLDE2MzIuNjEwOSwxODUuMTgxOSwxNjM1LjQ3MTksMTgyLjMyMDksMTYzMC41OTE4LDE4My45MiwxNjQwLjMxIiBzdHlsZT0ic3Ryb2tlOiMxODE4MTg7c3Ryb2tlLXdpZHRoOjEuMDsiLz48dGV4dCBmaWxsPSIjMDAwMDAwIiBmb250LWZhbWlseT0ic2Fucy1zZXJpZiIgZm9udC1zaXplPSIxMyIgbGVuZ3RoQWRqdXN0PSJzcGFjaW5nIiB0ZXh0TGVuZ3RoPSI4OSIgeD0iMzE1IiB5PSIxMDgwLjI4OTEiPkNhcHR1cmUgVmlkZW88L3RleHQ+PC9nPjwhLS1saW5rIFN1cnZlaWxsYW5jZUNhbWVyYSB0byBDYW1lcmEgQ29udHJvbGxlci0tPjxnIGlkPSJsaW5rX1N1cnZlaWxsYW5jZUNhbWVyYV9DYW1lcmEgQ29udHJvbGxlciI+PHBhdGggZD0iTTIzNi43NCwxNjQwLjQ2IEMyODUuMjUsMTYwOS42NyAzNTIuODksMTU2My4yNSA0MDUsMTUxNCBDNDA5LjE0LDE1MTAuMDkgNDA5LjEsMTUwOC4xNSA0MTMsMTUwNCBDNDQ0LjYzLDE0NzAuMzUgNDg1LjIxLDE0MzUuMDcgNTA5LjYsMTQxNC42ICIgZmlsbD0ibm9uZSIgaWQ9IlN1cnZlaWxsYW5jZUNhbWVyYS1DYW1lcmEgQ29udHJvbGxlciIgc3R5bGU9InN0cm9rZTojMTgxODE4O3N0cm9rZS13aWR0aDoxLjA7Ii8+PC9nPjwhLS1saW5rIENhbWVyYSBDb250cm9sbGVyIHRvIE1hbmFnZSBDYW1lcmFzLS0+PGcgaWQ9ImxpbmtfQ2FtZXJhIENvbnRyb2xsZXJfTWFuYWdlIENhbWVyYXMiPjxwYXRoIGQ9Ik02MTEuMDcsMTM5Ny4yMyBDNjY3LjQsMTM5Ny40IDczNi43NCwxMzk3LjYxMjMgNzkwLjg5LDEzOTcuNzcyMyAiIGZpbGw9Im5vbmUiIGlkPSJDYW1lcmEgQ29udHJvbGxlci10by1NYW5hZ2UgQ2FtZXJhcyIgc3R5bGU9InN0cm9rZTojMTgxODE4O3N0cm9rZS13aWR0aDoxLjA7Ii8+PHBvbHlnb24gZmlsbD0iIzE4MTgxOCIgcG9pbnRzPSI3OTYuODksMTM5Ny43OSw3ODcuOTAxOSwxMzkzLjc2MzQsNzkxLjg5LDEzOTcuNzc1Miw3ODcuODc4MiwxNDAxLjc2MzQsNzk2Ljg5LDEzOTcuNzkiIHN0eWxlPSJzdHJva2U6IzE4MTgxODtzdHJva2Utd2lkdGg6MS4wOyIvPjwvZz48IS0tbGluayBDYW1lcmEgQ29udHJvbGxlciB0byBDb25maWd1cmUgQ2FtZXJhcy0tPjxnIGlkPSJsaW5rX0NhbWVyYSBDb250cm9sbGVyX0NvbmZpZ3VyZSBDYW1lcmFzIj48cGF0aCBkPSJNNTkxLDEzODQuOTggQzY1MS45NCwxMzcyLjM2IDc0MS4zMzQ3LDEzNTMuODI2OCA4MDIuMjI0NywxMzQxLjIxNjggIiBmaWxsPSJub25lIiBpZD0iQ2FtZXJhIENvbnRyb2xsZXItdG8tQ29uZmlndXJlIENhbWVyYXMiIHN0eWxlPSJzdHJva2U6IzE4MTgxODtzdHJva2Utd2lkdGg6MS4wOyIvPjxwb2x5Z29uIGZpbGw9IiMxODE4MTgiIHBvaW50cz0iODA4LjEsMTM0MCw3OTguNDc1OCwxMzM3LjkwODIsODAzLjIwMzksMTM0MS4wMTQsODAwLjA5ODIsMTM0NS43NDIsODA4LjEsMTM0MCIgc3R5bGU9InN0cm9rZTojMTgxODE4O3N0cm9rZS13aWR0aDoxLjA7Ii8+PC9nPjwhLS1saW5rIFJlY2VpdmUgVmlkZW8gdG8gVmlkZW9TdG9yYWdlLS0+PGcgaWQ9ImxpbmtfUmVjZWl2ZSBWaWRlb19WaWRlb1N0b3JhZ2UiPjxwYXRoIGQ9Ik05MzEuNjMsNzc5LjMyIEM5NTEuNDgsNzgxLjUgOTcxLjg1LDc4Ny42OSA5ODYsODAyIEMxMjI4LjcsMTA0Ny4zOSA5NTMuOTUsMTI1Ny43NSAxMTAxLDE1NzAgQzExMTQuMTMsMTU5Ny44OCAxMTMzLjkzNjYsMTYxOS40MDgyIDExNTIuOTM2NiwxNjM2LjY0ODIgIiBmaWxsPSJub25lIiBpZD0iUmVjZWl2ZSBWaWRlby10by1WaWRlb1N0b3JhZ2UiIHN0eWxlPSJzdHJva2U6IzE4MTgxODtzdHJva2Utd2lkdGg6MS4wOyIvPjxwb2x5Z29uIGZpbGw9IiMxODE4MTgiIHBvaW50cz0iMTE1Ny4zOCwxNjQwLjY4LDExNTMuNDAyNywxNjMxLjY2OTksMTE1My42NzcxLDE2MzcuMzIwMSwxMTQ4LjAyNjksMTYzNy41OTQ1LDExNTcuMzgsMTY0MC42OCIgc3R5bGU9InN0cm9rZTojMTgxODE4O3N0cm9rZS13aWR0aDoxLjA7Ii8+PHRleHQgZmlsbD0iIzAwMDAwMCIgZm9udC1mYW1pbHk9InNhbnMtc2VyaWYiIGZvbnQtc2l6ZT0iMTMiIGxlbmd0aEFkanVzdD0ic3BhY2luZyIgdGV4dExlbmd0aD0iNzUiIHg9Ijk5NSIgeT0iODE1LjI4OTEiPlN0b3JlIFZpZGVvPC90ZXh0PjwvZz48IS0tbGluayBSZWNlaXZlIFZpZGVvIHRvIEFJX1Zpb2xlbmNlX0RldGVjdGlvbi0tPjxnIGlkPSJsaW5rX1JlY2VpdmUgVmlkZW9fQUlfVmlvbGVuY2VfRGV0ZWN0aW9uIj48cGF0aCBkPSJNODA4LjA2LDc3NS44IEM3NTYuNzEsNzY2LjExIDY4NC4yLDc0My42NSA2NDYuNSw2OTIgQzU5MC45OSw2MTUuOTYgNTUxLjI4NTUsMzMyLjc2MzUgNTM4LjI0NTUsMjI4LjYyMzUgIiBmaWxsPSJub25lIiBpZD0iUmVjZWl2ZSBWaWRlby10by1BSV9WaW9sZW5jZV9EZXRlY3Rpb24iIHN0eWxlPSJzdHJva2U6IzE4MTgxODtzdHJva2Utd2lkdGg6MS4wOyIvPjxwb2x5Z29uIGZpbGw9IiMxODE4MTgiIHBvaW50cz0iNTM3LjUsMjIyLjY3LDUzNC42NDkyLDIzMi4wOTcyLDUzOC4xMjEyLDIyNy42MzEzLDU0Mi41ODcyLDIzMS4xMDMzLDUzNy41LDIyMi42NyIgc3R5bGU9InN0cm9rZTojMTgxODE4O3N0cm9rZS13aWR0aDoxLjA7Ii8+PHRleHQgZmlsbD0iIzAwMDAwMCIgZm9udC1mYW1pbHk9InNhbnMtc2VyaWYiIGZvbnQtc2l6ZT0iMTMiIGxlbmd0aEFkanVzdD0ic3BhY2luZyIgdGV4dExlbmd0aD0iODkiIHg9IjY0Ny41IiB5PSI2OTAuMjg5MSI+QW5hbHl6ZSBWaWRlbzwvdGV4dD48L2c+PCEtLWxpbmsgQUlfVmlvbGVuY2VfRGV0ZWN0aW9uIHRvIFByZXByb2Nlc3MgVmlkZW8tLT48ZyBpZD0ibGlua19BSV9WaW9sZW5jZV9EZXRlY3Rpb25fUHJlcHJvY2VzcyBWaWRlbyI+PHBhdGggZD0iTTU2MC41MywyMjIuODcgQzYyOC45NCwzMTYuOTYgODA0LjYxLDU1OC41NyA4NTMuMzEsNjI1LjU1ICIgZmlsbD0ibm9uZSIgaWQ9IkFJX1Zpb2xlbmNlX0RldGVjdGlvbi1QcmVwcm9jZXNzIFZpZGVvIiBzdHlsZT0ic3Ryb2tlOiMxODE4MTg7c3Ryb2tlLXdpZHRoOjEuMDsiLz48L2c+PCEtLWxpbmsgUHJlcHJvY2VzcyBWaWRlbyB0byBFeHRyYWN0IEZlYXR1cmVzLS0+PGcgaWQ9ImxpbmtfUHJlcHJvY2VzcyBWaWRlb19FeHRyYWN0IEZlYXR1cmVzIj48cGF0aCBkPSJNOTIzLjEzLDY1NC44NCBDOTgxLjA0LDY2Ny4yOSAxMDY1LjczNCw2ODUuNDc5IDExMjMuNjA0LDY5Ny45MTkgIiBmaWxsPSJub25lIiBpZD0iUHJlcHJvY2VzcyBWaWRlby10by1FeHRyYWN0IEZlYXR1cmVzIiBzdHlsZT0ic3Ryb2tlOiMxODE4MTg7c3Ryb2tlLXdpZHRoOjEuMDsiLz48cG9seWdvbiBmaWxsPSIjMTgxODE4IiBwb2ludHM9IjExMjkuNDcsNjk5LjE4LDExMjEuNTExNyw2OTMuMzc3OSwxMTI0LjU4MTcsNjk4LjEyOTIsMTExOS44MzAzLDcwMS4xOTkyLDExMjkuNDcsNjk5LjE4IiBzdHlsZT0ic3Ryb2tlOiMxODE4MTg7c3Ryb2tlLXdpZHRoOjEuMDsiLz48L2c+PCEtLWxpbmsgRXh0cmFjdCBGZWF0dXJlcyB0byBGZWF0dXJlIEV4dHJhY3Rpb24gRW5naW5lLS0+PGcgaWQ9ImxpbmtfRXh0cmFjdCBGZWF0dXJlc19GZWF0dXJlIEV4dHJhY3Rpb24gRW5naW5lIj48cGF0aCBkPSJNMTI1MC4zNCw3MDEuOTIgQzEyODEuMzgsNjk3LjUgMTMxMy4xOTk4LDY5Mi45NzUxIDEzNDYuNzk5OCw2ODguMTk1MSAiIGZpbGw9Im5vbmUiIGlkPSJFeHRyYWN0IEZlYXR1cmVzLXRvLUZlYXR1cmUgRXh0cmFjdGlvbiBFbmdpbmUiIHN0eWxlPSJzdHJva2U6IzE4MTgxODtzdHJva2Utd2lkdGg6MS4wOyIvPjxwb2x5Z29uIGZpbGw9IiMxODE4MTgiIHBvaW50cz0iMTM1Mi43NCw2ODcuMzUsMTM0My4yNjYzLDY4NC42NTc1LDEzNDcuNzg5OCw2ODguMDU0MiwxMzQ0LjM5MzEsNjkyLjU3NzcsMTM1Mi43NCw2ODcuMzUiIHN0eWxlPSJzdHJva2U6IzE4MTgxODtzdHJva2Utd2lkdGg6MS4wOyIvPjwvZz48IS0tbGluayBGZWF0dXJlIEV4dHJhY3Rpb24gRW5naW5lIHRvIEZlYXR1cmUgRGF0YWJhc2UtLT48ZyBpZD0ibGlua19GZWF0dXJlIEV4dHJhY3Rpb24gRW5naW5lX0ZlYXR1cmUgRGF0YWJhc2UiPjxwYXRoIGQ9Ik0xNTM5LjY1LDY2OC4xMiBDMTYwNi44Miw2NjMuNDEgMTY4OC4zNjQ3LDY1Ny42ODk2IDE3NDguOTg0Nyw2NTMuNDM5NiAiIGZpbGw9Im5vbmUiIGlkPSJGZWF0dXJlIEV4dHJhY3Rpb24gRW5naW5lLXRvLUZlYXR1cmUgRGF0YWJhc2UiIHN0eWxlPSJzdHJva2U6IzE4MTgxODtzdHJva2Utd2lkdGg6MS4wOyIvPjxwb2x5Z29uIGZpbGw9IiMxODE4MTgiIHBvaW50cz0iMTc1NC45Nyw2NTMuMDIsMTc0NS43MTIzLDY0OS42NTkyLDE3NDkuOTgyMiw2NTMuMzY5NywxNzQ2LjI3MTgsNjU3LjYzOTYsMTc1NC45Nyw2NTMuMDIiIHN0eWxlPSJzdHJva2U6IzE4MTgxODtzdHJva2Utd2lkdGg6MS4wOyIvPjwvZz48IS0tbGluayBGZWF0dXJlIERhdGFiYXNlIHRvIEFJX1Zpb2xlbmNlX0RldGVjdGlvbi0tPjxnIGlkPSJsaW5rX0ZlYXR1cmUgRGF0YWJhc2VfQUlfVmlvbGVuY2VfRGV0ZWN0aW9uIj48cGF0aCBkPSJNMTgyMy42OSw2MzAuMjggQzE4MDcuMzMsNTMzLjkxIDE3MTUuMjksNzcgMTQ0MS41LDc3IEM4NjYsNzcgODY2LDc3IDg2Niw3NyBDNzcyLjI1LDc3IDY3Ni4wMDU1LDExMy42NDgxIDYwOS45OTU1LDE0NC44MTgxICIgZmlsbD0ibm9uZSIgaWQ9IkZlYXR1cmUgRGF0YWJhc2UtdG8tQUlfVmlvbGVuY2VfRGV0ZWN0aW9uIiBzdHlsZT0ic3Ryb2tlOiMxODE4MTg7c3Ryb2tlLXdpZHRoOjEuMDsiLz48cG9seWdvbiBmaWxsPSIjMTgxODE4IiBwb2ludHM9IjYwNC41NywxNDcuMzgsNjE0LjQxNjMsMTQ3LjE1NDEsNjA5LjA5MTMsMTQ1LjI0NSw2MTEuMDAwMywxMzkuOTIwMSw2MDQuNTcsMTQ3LjM4IiBzdHlsZT0ic3Ryb2tlOiMxODE4MTg7c3Ryb2tlLXdpZHRoOjEuMDsiLz48dGV4dCBmaWxsPSIjMDAwMDAwIiBmb250LWZhbWlseT0ic2Fucy1zZXJpZiIgZm9udC1zaXplPSIxMyIgbGVuZ3RoQWRqdXN0PSJzcGFjaW5nIiB0ZXh0TGVuZ3RoPSI1NSIgeD0iMTE1OCIgeT0iNzUuMjg5MSI+RmVhdHVyZXM8L3RleHQ+PC9nPjwhLS1saW5rIEFJX1Zpb2xlbmNlX0RldGVjdGlvbiB0byBWaW9sZW5jZSBEZXRlY3Rpb24tLT48ZyBpZD0ibGlua19BSV9WaW9sZW5jZV9EZXRlY3Rpb25fVmlvbGVuY2UgRGV0ZWN0aW9uIj48cGF0aCBkPSJNNTM4LjAxLDIyMi42OSBDNTUyLjMsMzE0Ljk1IDYwMS45Nyw1NTMuNjUgNzQ1LjUsNjc4IEM3NjAuMSw2OTAuNjUgNzc5LjAxLDY5OC44NiA3OTcuNSw3MDQuMTggIiBmaWxsPSJub25lIiBpZD0iQUlfVmlvbGVuY2VfRGV0ZWN0aW9uLVZpb2xlbmNlIERldGVjdGlvbiIgc3R5bGU9InN0cm9rZTojMTgxODE4O3N0cm9rZS13aWR0aDoxLjA7Ii8+PC9nPjwhLS1saW5rIFZpb2xlbmNlIERldGVjdGlvbiB0byBHZW5lcmF0ZSBBbGVydC0tPjxnIGlkPSJsaW5rX1Zpb2xlbmNlIERldGVjdGlvbl9HZW5lcmF0ZSBBbGVydCI+PHBhdGggZD0iTTkyNS4zMiw3MDAuOTYgQzk4NS4wOCw2ODcuMzcgMTA3MS45NTk1LDY2Ny42MDExIDExMjguNzg5NSw2NTQuNjcxMSAiIGZpbGw9Im5vbmUiIGlkPSJWaW9sZW5jZSBEZXRlY3Rpb24tdG8tR2VuZXJhdGUgQWxlcnQiIHN0eWxlPSJzdHJva2U6IzE4MTgxODtzdHJva2Utd2lkdGg6MS4wOyIvPjxwb2x5Z29uIGZpbGw9IiMxODE4MTgiIHBvaW50cz0iMTEzNC42NCw2NTMuMzQsMTEyNC45NzY5LDY1MS40MzYzLDExMjkuNzY0Niw2NTQuNDQ5MywxMTI2Ljc1MTcsNjU5LjIzNywxMTM0LjY0LDY1My4zNCIgc3R5bGU9InN0cm9rZTojMTgxODE4O3N0cm9rZS13aWR0aDoxLjA7Ii8+PC9nPjwhLS1saW5rIFZpb2xlbmNlIERldGVjdGlvbiB0byBVcGRhdGUgSW5jaWRlbnQgTG9nLS0+PGcgaWQ9ImxpbmtfVmlvbGVuY2UgRGV0ZWN0aW9uX1VwZGF0ZSBJbmNpZGVudCBMb2ciPjxwYXRoIGQ9Ik05MjYuNDIsNzI2Ljc0IEM5ODIuNDIsNzM4Ljk0IDEwNjAuNzM3Niw3NTYuMDIyMyAxMTE3LjU4NzYsNzY4LjQxMjMgIiBmaWxsPSJub25lIiBpZD0iVmlvbGVuY2UgRGV0ZWN0aW9uLXRvLVVwZGF0ZSBJbmNpZGVudCBMb2ciIHN0eWxlPSJzdHJva2U6IzE4MTgxODtzdHJva2Utd2lkdGg6MS4wOyIvPjxwb2x5Z29uIGZpbGw9IiMxODE4MTgiIHBvaW50cz0iMTEyMy40NSw3NjkuNjksMTExNS41MDgyLDc2My44NjUzLDExMTguNTY0Nyw3NjguNjI1MywxMTEzLjgwNDYsNzcxLjY4MTgsMTEyMy40NSw3NjkuNjkiIHN0eWxlPSJzdHJva2U6IzE4MTgxODtzdHJva2Utd2lkdGg6MS4wOyIvPjwvZz48IS0tbGluayBHZW5lcmF0ZSBBbGVydCB0byBBbGVydCBBdXRob3JpdGllcy0tPjxnIGlkPSJsaW5rX0dlbmVyYXRlIEFsZXJ0X0FsZXJ0IEF1dGhvcml0aWVzIj48cGF0aCBkPSJNMTIxNC4wNiw2MjYuNzUgQzEyNjEuODMsNjAwLjMyIDEzNTQuNDAwMSw1NDkuMDk1IDE0MDMuOTkwMSw1MjEuNjU1ICIgZmlsbD0ibm9uZSIgaWQ9IkdlbmVyYXRlIEFsZXJ0LXRvLUFsZXJ0IEF1dGhvcml0aWVzIiBzdHlsZT0ic3Ryb2tlOiMxODE4MTg7c3Ryb2tlLXdpZHRoOjEuMDsiLz48cG9seWdvbiBmaWxsPSIjMTgxODE4IiBwb2ludHM9IjE0MDkuMjQsNTE4Ljc1LDEzOTkuNDI4NSw1MTkuNjA3NSwxNDA0Ljg2NTEsNTIxLjE3MDgsMTQwMy4zMDE4LDUyNi42MDc0LDE0MDkuMjQsNTE4Ljc1IiBzdHlsZT0ic3Ryb2tlOiMxODE4MTg7c3Ryb2tlLXdpZHRoOjEuMDsiLz48L2c+PCEtLWxpbmsgR2VuZXJhdGUgQWxlcnQgdG8gU2VjdXJpdHktLT48ZyBpZD0ibGlua19HZW5lcmF0ZSBBbGVydF9TZWN1cml0eSI+PHBhdGggZD0iTTExODUuNSw2MjUuNDcgQzExODUuNSw1NTkuODYgMTE4NS41LDMyMi44OCAxMTg1LjUsMjI4LjY3ICIgZmlsbD0ibm9uZSIgaWQ9IkdlbmVyYXRlIEFsZXJ0LXRvLVNlY3VyaXR5IiBzdHlsZT0ic3Ryb2tlOiMxODE4MTg7c3Ryb2tlLXdpZHRoOjEuMDsiLz48cG9seWdvbiBmaWxsPSIjMTgxODE4IiBwb2ludHM9IjExODUuNSwyMjIuNjcsMTE4MS41LDIzMS42NywxMTg1LjUsMjI3LjY3LDExODkuNSwyMzEuNjcsMTE4NS41LDIyMi42NyIgc3R5bGU9InN0cm9rZTojMTgxODE4O3N0cm9rZS13aWR0aDoxLjA7Ii8+PHRleHQgZmlsbD0iIzAwMDAwMCIgZm9udC1mYW1pbHk9InNhbnMtc2VyaWYiIGZvbnQtc2l6ZT0iMTMiIGxlbmd0aEFkanVzdD0ic3BhY2luZyIgdGV4dExlbmd0aD0iMTEzIiB4PSIxMTE4LjUiIHk9IjQyOS43ODkxIj5BbGVydCBBdXRob3JpdGllczwvdGV4dD48L2c+PCEtLWxpbmsgU2VjdXJpdHkgdG8gU2VjdXJpdHkgUGVyc29ubmVsLS0+PGcgaWQ9ImxpbmtfU2VjdXJpdHlfU2VjdXJpdHkgUGVyc29ubmVsIj48cGF0aCBkPSJNMTIwNy41OCwyMjIuNzYgQzEyMzAuMTksMjU5LjU0IDEyNjkuNiwzMTQuMDEgMTMxOSwzNDMgQzEzMzIuNSwzNTAuOTIgMTM0OC4xOCwzNTYuMTkgMTM2My42OCwzNTkuNjggIiBmaWxsPSJub25lIiBpZD0iU2VjdXJpdHktU2VjdXJpdHkgUGVyc29ubmVsIiBzdHlsZT0ic3Ryb2tlOiMxODE4MTg7c3Ryb2tlLXdpZHRoOjEuMDsiLz48L2c+PCEtLWxpbmsgR2VuZXJhdGUgQWxlcnQgdG8gTm90aWZ5IFVzZXItLT48ZyBpZD0ibGlua19HZW5lcmF0ZSBBbGVydF9Ob3RpZnkgVXNlciI+PHBhdGggZD0iTTEyMDMuNDcsNjI1Ljg4IEMxMjI4Ljk5LDYwMC44NCAxMjc3LjQxLDU1MC4xNCAxMzA3LDQ5OSBDMTMxNC44Miw0ODUuNDkgMTMwNy40OCw0NzYuNTMgMTMxOSw0NjYgQzEzMzYuMDEsNDUwLjQ0IDEzNTMuODI3OSw0NDMuNDIyNyAxMzc1LjcyNzksNDM5LjIxMjcgIiBmaWxsPSJub25lIiBpZD0iR2VuZXJhdGUgQWxlcnQtdG8tTm90aWZ5IFVzZXIiIHN0eWxlPSJzdHJva2U6IzE4MTgxODtzdHJva2Utd2lkdGg6MS4wOyIvPjxwb2x5Z29uIGZpbGw9IiMxODE4MTgiIHBvaW50cz0iMTM4MS42Miw0MzguMDgsMTM3Mi4wMjY3LDQzNS44NTEsMTM3Ni43MDk5LDQzOS4wMjM5LDEzNzMuNTM3LDQ0My43MDcxLDEzODEuNjIsNDM4LjA4IiBzdHlsZT0ic3Ryb2tlOiMxODE4MTg7c3Ryb2tlLXdpZHRoOjEuMDsiLz48L2c+PCEtLWxpbmsgTm90aWZ5IFVzZXIgdG8gVXNlci0tPjxnIGlkPSJsaW5rX05vdGlmeSBVc2VyX1VzZXIiPjxwYXRoIGQ9Ik0xNDkxLjAzLDQyNS44MyBDMTUxMy41MSw0MjAuODkgMTUzOS45NCw0MTMuMyAxNTYyLDQwMiBDMTY3MS43LDM0NS44MiAxNzczLjI1MjQsMjQyLjU0MjIgMTgwOS4zNDI0LDIwMy43NjIyICIgZmlsbD0ibm9uZSIgaWQ9Ik5vdGlmeSBVc2VyLXRvLVVzZXIiIHN0eWxlPSJzdHJva2U6IzE4MTgxODtzdHJva2Utd2lkdGg6MS4wOyIvPjxwb2x5Z29uIGZpbGw9IiMxODE4MTgiIHBvaW50cz0iMTgxMy40MywxOTkuMzcsMTgwNC4zNzA1LDIwMy4yMzMzLDE4MTAuMDIzNywyMDMuMDMwMiwxODEwLjIyNjgsMjA4LjY4MzQsMTgxMy40MywxOTkuMzciIHN0eWxlPSJzdHJva2U6IzE4MTgxODtzdHJva2Utd2lkdGg6MS4wOyIvPjx0ZXh0IGZpbGw9IiMwMDAwMDAiIGZvbnQtZmFtaWx5PSJzYW5zLXNlcmlmIiBmb250LXNpemU9IjEzIiBsZW5ndGhBZGp1c3Q9InNwYWNpbmciIHRleHRMZW5ndGg9IjExOCIgeD0iMTU3NSIgeT0iMzEyLjI4OTEiPkFsZXJ0IE5vdGlmaWNhdGlvbjwvdGV4dD48L2c+PCEtLWxpbmsgVXBkYXRlIEluY2lkZW50IExvZyB0byBJbmNpZGVudCBEYXRhYmFzZS0tPjxnIGlkPSJsaW5rX1VwZGF0ZSBJbmNpZGVudCBMb2dfSW5jaWRlbnQgRGF0YWJhc2UiPjxwYXRoIGQ9Ik0xMjE2LjAyLDgwMS40MyBDMTI2NS41NSw4MzIuMzcgMTM1OS41NzEsODkxLjA4MTYgMTQwNy4zODEsOTIwLjk0MTYgIiBmaWxsPSJub25lIiBpZD0iVXBkYXRlIEluY2lkZW50IExvZy10by1JbmNpZGVudCBEYXRhYmFzZSIgc3R5bGU9InN0cm9rZTojMTgxODE4O3N0cm9rZS13aWR0aDoxLjA7Ii8+PHBvbHlnb24gZmlsbD0iIzE4MTgxOCIgcG9pbnRzPSIxNDEyLjQ3LDkyNC4xMiwxNDA2Ljk1NTQsOTE1Ljk1OTgsMTQwOC4yMjkyLDkyMS40NzE0LDE0MDIuNzE3Niw5MjIuNzQ1MSwxNDEyLjQ3LDkyNC4xMiIgc3R5bGU9InN0cm9rZTojMTgxODE4O3N0cm9rZS13aWR0aDoxLjA7Ii8+PC9nPjwhLS1saW5rIEluY2lkZW50IERhdGFiYXNlIHRvIFJldHJpZXZlIEluY2lkZW50IEhpc3RvcnktLT48ZyBpZD0ibGlua19JbmNpZGVudCBEYXRhYmFzZV9SZXRyaWV2ZSBJbmNpZGVudCBIaXN0b3J5Ij48cGF0aCBkPSJNMTUxOC45NSw5NDIuMDEgQzE1NzcuOTEsOTQyLjc3IDE2NTMuNjEwNSw5NDMuNzUxNyAxNzE3Ljk4MDUsOTQ0LjU5MTcgIiBmaWxsPSJub25lIiBpZD0iSW5jaWRlbnQgRGF0YWJhc2UtdG8tUmV0cmlldmUgSW5jaWRlbnQgSGlzdG9yeSIgc3R5bGU9InN0cm9rZTojMTgxODE4O3N0cm9rZS13aWR0aDoxLjA7Ii8+PHBvbHlnb24gZmlsbD0iIzE4MTgxOCIgcG9pbnRzPSIxNzIzLjk4LDk0NC42NywxNzE1LjAzMyw5NDAuNTUyOSwxNzE4Ljk4MDQsOTQ0LjYwNDgsMTcxNC45Mjg2LDk0OC41NTIyLDE3MjMuOTgsOTQ0LjY3IiBzdHlsZT0ic3Ryb2tlOiMxODE4MTg7c3Ryb2tlLXdpZHRoOjEuMDsiLz48L2c+PCEtLWxpbmsgUmV0cmlldmUgSW5jaWRlbnQgSGlzdG9yeSB0byBVc2VyLS0+PGcgaWQ9ImxpbmtfUmV0cmlldmUgSW5jaWRlbnQgSGlzdG9yeV9Vc2VyIj48cGF0aCBkPSJNMTcyNC40NSw5NDMuODEgQzE2ODEuNDEsOTM3LjEzIDE2MzUuMTgsOTIxLjE5IDE2MDgsODg1LjUgQzE1MjEuOCw3NzIuMzMgMTc1MC4wNDUxLDMyOS4wOTgxIDE4MTAuNTc1MSwyMTYuMTg4MSAiIGZpbGw9Im5vbmUiIGlkPSJSZXRyaWV2ZSBJbmNpZGVudCBIaXN0b3J5LXRvLVVzZXIiIHN0eWxlPSJzdHJva2U6IzE4MTgxODtzdHJva2Utd2lkdGg6MS4wOyIvPjxwb2x5Z29uIGZpbGw9IiMxODE4MTgiIHBvaW50cz0iMTgxMy40MSwyMTAuOSwxODA1LjYzMjMsMjE2Ljk0MjIsMTgxMS4wNDc2LDIxNS4zMDY3LDE4MTIuNjgzMSwyMjAuNzIyLDE4MTMuNDEsMjEwLjkiIHN0eWxlPSJzdHJva2U6IzE4MTgxODtzdHJva2Utd2lkdGg6MS4wOyIvPjx0ZXh0IGZpbGw9IiMwMDAwMDAiIGZvbnQtZmFtaWx5PSJzYW5zLXNlcmlmIiBmb250LXNpemU9IjEzIiBsZW5ndGhBZGp1c3Q9InNwYWNpbmciIHRleHRMZW5ndGg9IjEwMCIgeD0iMTU4NCIgeT0iODgzLjc4OTEiPkhpc3RvcmljYWwgRGF0YTwvdGV4dD48L2c+PCEtLWxpbmsgQUlfVmlvbGVuY2VfRGV0ZWN0aW9uIHRvIFRyYWluIE1vZGVsLS0+PGcgaWQ9ImxpbmtfQUlfVmlvbGVuY2VfRGV0ZWN0aW9uX1RyYWluIE1vZGVsIj48cGF0aCBkPSJNNTI2LjExLDIyMi42IEM1MDQuNzQsMzgxLjI4IDQxNC44Myw5OTQuMjMgMjg0LDExMzAgQzI2OS44OCwxMTQ0LjY1IDI0OS41MSwxMTUyLjg2IDIzMC4xNiwxMTU3LjQ0ICIgZmlsbD0ibm9uZSIgaWQ9IkFJX1Zpb2xlbmNlX0RldGVjdGlvbi1UcmFpbiBNb2RlbCIgc3R5bGU9InN0cm9rZTojMTgxODE4O3N0cm9rZS13aWR0aDoxLjA7Ii8+PC9nPjwhLS1saW5rIEFJX1Zpb2xlbmNlX0RldGVjdGlvbiB0byBVcGRhdGUgTW9kZWwtLT48ZyBpZD0ibGlua19BSV9WaW9sZW5jZV9EZXRlY3Rpb25fVXBkYXRlIE1vZGVsIj48cGF0aCBkPSJNNTA3LjY5LDIyMi43MyBDNDYxLjQ0LDI5OS43MyAzNTguNyw0ODEuOSAzMTQsNjUwIEMyOTMuMzcsNzI3LjU4IDMyMS42Nyw5MzkuMTEgMjg0LDEwMTAgQzI2NS44LDEwNDQuMjQgMjI3Ljk3LDEwNjkuOSAyMDEuOTEsMTA4NC40MiAiIGZpbGw9Im5vbmUiIGlkPSJBSV9WaW9sZW5jZV9EZXRlY3Rpb24tVXBkYXRlIE1vZGVsIiBzdHlsZT0ic3Ryb2tlOiMxODE4MTg7c3Ryb2tlLXdpZHRoOjEuMDsiLz48L2c+PCEtLWxpbmsgVHJhaW4gTW9kZWwgdG8gVHJhaW5pbmcgRGF0YS0tPjxnIGlkPSJsaW5rX1RyYWluIE1vZGVsX1RyYWluaW5nIERhdGEiPjxwYXRoIGQ9Ik0yMzQuNTcsMTE2Mi42NiBDMjk4LjQ3LDExNjIuMyAzOTMuMjQwMSwxMTYxLjc3MzYgNDU5LjIzMDEsMTE2MS40MDM2ICIgZmlsbD0ibm9uZSIgaWQ9IlRyYWluIE1vZGVsLXRvLVRyYWluaW5nIERhdGEiIHN0eWxlPSJzdHJva2U6IzE4MTgxODtzdHJva2Utd2lkdGg6MS4wOyIvPjxwb2x5Z29uIGZpbGw9IiMxODE4MTgiIHBvaW50cz0iNDY1LjIzLDExNjEuMzcsNDU2LjIwNzcsMTE1Ny40MjA1LDQ2MC4yMzAxLDExNjEuMzk4LDQ1Ni4yNTI2LDExNjUuNDIwNCw0NjUuMjMsMTE2MS4zNyIgc3R5bGU9InN0cm9rZTojMTgxODE4O3N0cm9rZS13aWR0aDoxLjA7Ii8+PC9nPjwhLS1saW5rIFRyYWluaW5nIERhdGEgdG8gRGF0YSBQcmVwYXJhdGlvbi0tPjxnIGlkPSJsaW5rX1RyYWluaW5nIERhdGFfRGF0YSBQcmVwYXJhdGlvbiI+PHBhdGggZD0iTTU5OC43OSwxMTYwLjYgQzY1NC4yMywxMTYwLjI3IDcyNy41NDAxLDExNTkuODM2MyA3ODUuMzQwMSwxMTU5LjQ4NjMgIiBmaWxsPSJub25lIiBpZD0iVHJhaW5pbmcgRGF0YS10by1EYXRhIFByZXBhcmF0aW9uIiBzdHlsZT0ic3Ryb2tlOiMxODE4MTg7c3Ryb2tlLXdpZHRoOjEuMDsiLz48cG9seWdvbiBmaWxsPSIjMTgxODE4IiBwb2ludHM9Ijc5MS4zNCwxMTU5LjQ1LDc4Mi4zMTU5LDExNTUuNTA0Niw3ODYuMzQwMSwxMTU5LjQ4MDMsNzgyLjM2NDQsMTE2My41MDQ0LDc5MS4zNCwxMTU5LjQ1IiBzdHlsZT0ic3Ryb2tlOiMxODE4MTg7c3Ryb2tlLXdpZHRoOjEuMDsiLz48L2c+PCEtLWxpbmsgRGF0YSBQcmVwYXJhdGlvbiB0byBEYXRhIENsZWFuaW5nLS0+PGcgaWQ9ImxpbmtfRGF0YSBQcmVwYXJhdGlvbl9EYXRhIENsZWFuaW5nIj48cGF0aCBkPSJNOTQyLjYxLDExNTkgQzk5Ni4xNSwxMTU5IDEwNjEuNjMsMTE1OSAxMTEyLjk4LDExNTkgIiBmaWxsPSJub25lIiBpZD0iRGF0YSBQcmVwYXJhdGlvbi10by1EYXRhIENsZWFuaW5nIiBzdHlsZT0ic3Ryb2tlOiMxODE4MTg7c3Ryb2tlLXdpZHRoOjEuMDsiLz48cG9seWdvbiBmaWxsPSIjMTgxODE4IiBwb2ludHM9IjExMTguOTgsMTE1OSwxMTA5Ljk4LDExNTUsMTExMy45OCwxMTU5LDExMDkuOTgsMTE2MywxMTE4Ljk4LDExNTkiIHN0eWxlPSJzdHJva2U6IzE4MTgxODtzdHJva2Utd2lkdGg6MS4wOyIvPjwvZz48IS0tbGluayBEYXRhIENsZWFuaW5nIHRvIEZlYXR1cmUgRW5naW5lZXJpbmctLT48ZyBpZD0ibGlua19EYXRhIENsZWFuaW5nX0ZlYXR1cmUgRW5naW5lZXJpbmciPjxwYXRoIGQ9Ik0xMjUxLjk4LDExNTguNDggQzEyODMuNjEsMTE1OC4yMyAxMzE1LjkyMDIsMTE1Ny45NzggMTM0OS42NjAyLDExNTcuNzA4ICIgZmlsbD0ibm9uZSIgaWQ9IkRhdGEgQ2xlYW5pbmctdG8tRmVhdHVyZSBFbmdpbmVlcmluZyIgc3R5bGU9InN0cm9rZTojMTgxODE4O3N0cm9rZS13aWR0aDoxLjA7Ii8+PHBvbHlnb24gZmlsbD0iIzE4MTgxOCIgcG9pbnRzPSIxMzU1LjY2LDExNTcuNjYsMTM0Ni42MjgzLDExNTMuNzMyMSwxMzUwLjY2MDIsMTE1Ny43LDEzNDYuNjkyMywxMTYxLjczMTksMTM1NS42NiwxMTU3LjY2IiBzdHlsZT0ic3Ryb2tlOiMxODE4MTg7c3Ryb2tlLXdpZHRoOjEuMDsiLz48L2c+PCEtLWxpbmsgRmVhdHVyZSBFbmdpbmVlcmluZyB0byBNb2RlbCBUcmFpbmluZyBBbGdvcml0aG0tLT48ZyBpZD0ibGlua19GZWF0dXJlIEVuZ2luZWVyaW5nX01vZGVsIFRyYWluaW5nIEFsZ29yaXRobSI+PHBhdGggZD0iTTE1MjUuMDQsMTE1Ni41NyBDMTU4NC4yLDExNTYuMjYgMTY1Ny44MzAxLDExNTUuODgxNiAxNzIwLjM5MDEsMTE1NS41NTE2ICIgZmlsbD0ibm9uZSIgaWQ9IkZlYXR1cmUgRW5naW5lZXJpbmctdG8tTW9kZWwgVHJhaW5pbmcgQWxnb3JpdGhtIiBzdHlsZT0ic3Ryb2tlOiMxODE4MTg7c3Ryb2tlLXdpZHRoOjEuMDsiLz48cG9seWdvbiBmaWxsPSIjMTgxODE4IiBwb2ludHM9IjE3MjYuMzksMTE1NS41MiwxNzE3LjM2OSwxMTUxLjU2NzUsMTcyMS4zOTAxLDExNTUuNTQ2NCwxNzE3LjQxMTIsMTE1OS41Njc0LDE3MjYuMzksMTE1NS41MiIgc3R5bGU9InN0cm9rZTojMTgxODE4O3N0cm9rZS13aWR0aDoxLjA7Ii8+PC9nPjwhLS1saW5rIE1vZGVsIFRyYWluaW5nIEFsZ29yaXRobSB0byBUcmFpbmVkIE1vZGVsLS0+PGcgaWQ9ImxpbmtfTW9kZWwgVHJhaW5pbmcgQWxnb3JpdGhtX1RyYWluZWQgTW9kZWwiPjxwYXRoIGQ9Ik0xOTI4LjYxLDExNTUgQzE5NTYuMDIsMTE1NSAxOTc5LjAzLDExNTUgMjAwMy45NywxMTU1ICIgZmlsbD0ibm9uZSIgaWQ9Ik1vZGVsIFRyYWluaW5nIEFsZ29yaXRobS10by1UcmFpbmVkIE1vZGVsIiBzdHlsZT0ic3Ryb2tlOiMxODE4MTg7c3Ryb2tlLXdpZHRoOjEuMDsiLz48cG9seWdvbiBmaWxsPSIjMTgxODE4IiBwb2ludHM9IjIwMDkuOTcsMTE1NSwyMDAwLjk3LDExNTEsMjAwNC45NywxMTU1LDIwMDAuOTcsMTE1OSwyMDA5Ljk3LDExNTUiIHN0eWxlPSJzdHJva2U6IzE4MTgxODtzdHJva2Utd2lkdGg6MS4wOyIvPjwvZz48IS0tbGluayBUcmFpbmVkIE1vZGVsIHRvIE1vZGVsIEV2YWx1YXRpb24tLT48ZyBpZD0ibGlua19UcmFpbmVkIE1vZGVsX01vZGVsIEV2YWx1YXRpb24iPjxwYXRoIGQ9Ik0yMTQzLjA0LDExNTUgQzIxNjIuNTEsMTE1NSAyMTc3Ljk5LDExNTUgMjE5Ny45OSwxMTU1ICIgZmlsbD0ibm9uZSIgaWQ9IlRyYWluZWQgTW9kZWwtdG8tTW9kZWwgRXZhbHVhdGlvbiIgc3R5bGU9InN0cm9rZTojMTgxODE4O3N0cm9rZS13aWR0aDoxLjA7Ii8+PHBvbHlnb24gZmlsbD0iIzE4MTgxOCIgcG9pbnRzPSIyMjAzLjk5LDExNTUsMjE5NC45OSwxMTUxLDIxOTguOTksMTE1NSwyMTk0Ljk5LDExNTksMjIwMy45OSwxMTU1IiBzdHlsZT0ic3Ryb2tlOiMxODE4MTg7c3Ryb2tlLXdpZHRoOjEuMDsiLz48L2c+PCEtLWxpbmsgTW9kZWwgRXZhbHVhdGlvbiB0byBGaW5lLXR1bmluZy0tPjxnIGlkPSJsaW5rX01vZGVsIEV2YWx1YXRpb25fRmluZS10dW5pbmciPjxwYXRoIGQ9Ik0yMzU1LjI1LDExNTUgQzIzNzUuMywxMTU1IDIzOTAuNzIsMTE1NSAyNDA5Ljg2LDExNTUgIiBmaWxsPSJub25lIiBpZD0iTW9kZWwgRXZhbHVhdGlvbi10by1GaW5lLXR1bmluZyIgc3R5bGU9InN0cm9rZTojMTgxODE4O3N0cm9rZS13aWR0aDoxLjA7Ii8+PHBvbHlnb24gZmlsbD0iIzE4MTgxOCIgcG9pbnRzPSIyNDE1Ljg2LDExNTUsMjQwNi44NiwxMTUxLDI0MTAuODYsMTE1NSwyNDA2Ljg2LDExNTksMjQxNS44NiwxMTU1IiBzdHlsZT0ic3Ryb2tlOiMxODE4MTg7c3Ryb2tlLXdpZHRoOjEuMDsiLz48L2c+PCEtLWxpbmsgRGVwbG95IE1vZGVsIHRvIE1vbml0b3IgTW9kZWwtLT48ZyBpZD0ibGlua19EZXBsb3kgTW9kZWxfTW9uaXRvciBNb2RlbCI+PHBhdGggZD0iTTU5Ni4wMywxNTM1LjM4IEM2NTQuNDgsMTUzNS43MyA3MzUuMTIwMSwxNTM2LjIxMzYgNzk0LjM5MDEsMTUzNi41NzM2ICIgZmlsbD0ibm9uZSIgaWQ9IkRlcGxveSBNb2RlbC10by1Nb25pdG9yIE1vZGVsIiBzdHlsZT0ic3Ryb2tlOiMxODE4MTg7c3Ryb2tlLXdpZHRoOjEuMDsiLz48cG9seWdvbiBmaWxsPSIjMTgxODE4IiBwb2ludHM9IjgwMC4zOSwxNTM2LjYxLDc5MS40MTQ1LDE1MzIuNTU1NCw3OTUuMzkwMSwxNTM2LjU3OTYsNzkxLjM2NTksMTU0MC41NTUzLDgwMC4zOSwxNTM2LjYxIiBzdHlsZT0ic3Ryb2tlOiMxODE4MTg7c3Ryb2tlLXdpZHRoOjEuMDsiLz48L2c+PCEtLWxpbmsgTW9uaXRvciBNb2RlbCB0byBTY2FsZSBSZXNvdXJjZXMtLT48ZyBpZD0ibGlua19Nb25pdG9yIE1vZGVsX1NjYWxlIFJlc291cmNlcyI+PHBhdGggZD0iTTkzMy41OCwxNTM3IEM5ODUuOTEsMTUzNyAxMDUzLjExLDE1MzcgMTEwNi45NCwxNTM3ICIgZmlsbD0ibm9uZSIgaWQ9Ik1vbml0b3IgTW9kZWwtdG8tU2NhbGUgUmVzb3VyY2VzIiBzdHlsZT0ic3Ryb2tlOiMxODE4MTg7c3Ryb2tlLXdpZHRoOjEuMDsiLz48cG9seWdvbiBmaWxsPSIjMTgxODE4IiBwb2ludHM9IjExMTIuOTQsMTUzNywxMTAzLjk0LDE1MzMsMTEwNy45NCwxNTM3LDExMDMuOTQsMTU0MSwxMTEyLjk0LDE1MzciIHN0eWxlPSJzdHJva2U6IzE4MTgxODtzdHJva2Utd2lkdGg6MS4wOyIvPjwvZz48IS0tbGluayBVc2VySW50ZXJmYWNlIHRvIFZpZGVvUHJvY2Vzc2luZy0tPjxnIGlkPSJsaW5rX1VzZXJJbnRlcmZhY2VfVmlkZW9Qcm9jZXNzaW5nIj48cGF0aCBkPSJNMTg4LjUzNDksMTAwMi4xNzQ3IEMxODguNjUwNywxMDAyLjI0MzUgMTg4Ljc2NywxMDAyLjMxMjcgMTg4Ljg4NCwxMDAyLjM4MjMgQzE4OS44MTk3LDEwMDIuOTM4OSAxOTAuNzkzMiwxMDAzLjUxOTggMTkxLjgwMiwxMDA0LjEyNDIgQzE5My44MTk1LDEwMDUuMzMyOSAxOTUuOTc4NCwxMDA2LjYzNSAxOTguMjU5NCwxMDA4LjAyMjQgQzIwMi44MjEzLDEwMTAuNzk3MSAyMDcuODcxMywxMDEzLjkxMjggMjEzLjI1NSwxMDE3LjMwMzggQzIzNC43OSwxMDMwLjg2NzUgMjYxLjY2NSwxMDQ4LjgzNSAyODQsMTA2NyBDMzQ2LjQyLDExMTcuNzYgMzUyLjUxLDExNDAuOTUgNDEzLDExOTQgQzQzNy42MSwxMjE1LjU4IDQ2Ni41OCwxMjM4LjIwNSA0ODkuNjU2MywxMjU1LjYxNzUgQzQ5MS4wOTg1LDEyNTYuNzA1OCA0OTIuNTE3OCwxMjU3Ljc3MzcgNDkzLjkxMTUsMTI1OC44MTk3IEM0OTQuNjA4MywxMjU5LjM0MjcgNDk1LjI5ODgsMTI1OS44NjAzIDQ5NS45ODI2LDEyNjAuMzcyMiBDNDk2LjE1MzUsMTI2MC41MDAxIDQ5Ni4zMjQxLDEyNjAuNjI3OCA0OTYuNDk0MiwxMjYwLjc1NSAiIGZpbGw9Im5vbmUiIGlkPSJVc2VySW50ZXJmYWNlLVZpZGVvUHJvY2Vzc2luZyIgc3R5bGU9InN0cm9rZTojMTgxODE4O3N0cm9rZS13aWR0aDoxLjA7Ii8+PC9nPjwhLS1saW5rIFZpZGVvUHJvY2Vzc2luZyB0byBWaWRlb0FuYWx5dGljcy0tPjxnIGlkPSJsaW5rX1ZpZGVvUHJvY2Vzc2luZ19WaWRlb0FuYWx5dGljcyI+PHBhdGggZD0iTTU2Ni43MTIzLDEyNjAuNzg5NSBDNTY3LjAyOTksMTI2MC41MzggNTY3LjM0ODksMTI2MC4yODUgNTY3LjY2OTMsMTI2MC4wMzA2IEM1NjguOTUwNSwxMjU5LjAxMjggNTcwLjI1MjksMTI1Ny45NzE4IDU3MS41NzM4LDEyNTYuOTA4OCBDNTkyLjcwNzUsMTIzOS45IDYxOC41NzUsMTIxNy4yNSA2MzguNSwxMTk0IEM2OTkuMTI1LDExMjMuMjcgNzU1LjE4NSwxMDM0Ljk1NSA3OTYuNDg2Miw5NjMuNSBDODE3LjEzNjksOTI3Ljc3MjUgODM0LjA5NzgsODk2LjI2IDg0Ni4wOTQ4LDg3My4yNjgxIEM4NTIuMDkzNCw4NjEuNzcyMiA4NTYuODUwOSw4NTIuNDA2NCA4NjAuMjA4Miw4NDUuNzA5IEM4NjAuNjI3OCw4NDQuODcxOCA4NjEuMDI1Niw4NDQuMDc2MyA4NjEuNDAxMiw4NDMuMzIzNiBDODYxLjU4OSw4NDIuOTQ3MiA4NjEuNzcxMyw4NDIuNTgxNSA4NjEuOTQ3OSw4NDIuMjI2NyAiIGZpbGw9Im5vbmUiIGlkPSJWaWRlb1Byb2Nlc3NpbmctVmlkZW9BbmFseXRpY3MiIHN0eWxlPSJzdHJva2U6IzE4MTgxODtzdHJva2Utd2lkdGg6MS4wOyIvPjwvZz48IS0tbGluayBWaWRlb0FuYWx5dGljcyB0byBBbGVydGluZy0tPjxnIGlkPSJsaW5rX1ZpZGVvQW5hbHl0aWNzX0FsZXJ0aW5nIj48cGF0aCBkPSJNMTExNy4wOTM1LDU4My43MDY3IEMxMTE3LjM4ODIsNTgzLjIyNjQgMTExNy42ODE5LDU4Mi43NDcgMTExNy45NzQ0LDU4Mi4yNjg0IEMxMTE4LjU1OTQsNTgxLjMxMTQgMTExOS4xMzk4LDU4MC4zNTc5IDExMTkuNzE1OSw1NzkuNDA4IEMxMTIwLjg2OCw1NzcuNTA4MSAxMTIyLjAwMjUsNTc1LjYyMjMgMTEyMy4xMjAyLDU3My43NTA0IEMxMTI1LjM1NTUsNTcwLjAwNjQgMTEyNy41MjM3LDU2Ni4zMTc3IDExMjkuNjMxOCw1NjIuNjgyIEMxMTM4LjA2NDEsNTQ4LjEzODkgMTE0NS41MzQxLDUzNC40NDI4IDExNTIuNDkwMiw1MjEuNDQ1NiBDMTE2Ni40MDIyLDQ5NS40NTEzIDExNzguMjU4MSw0NzIuMjUyNSAxMTkxLjY0MzgsNDUwLjY2NSBDMTIxOC40MTUsNDA3LjQ5IDEyNTEuMzA1LDM3MC43NiAxMzE5LDMzMSBDMTMyMS44NzYzLDMyOS4zMTA2IDEzMjQuODU0NywzMjcuNzU3MiAxMzI3LjkxMTksMzI2LjMyOTQgQzEzMjkuNDQwNCwzMjUuNjE1NCAxMzMwLjk4ODcsMzI0LjkzMjkgMTMzMi41NTM3LDMyNC4yODA1IEMxMzMzLjMzNjIsMzIzLjk1NDMgMTMzNC4xMjI5LDMyMy42MzU2IDEzMzQuOTEzNCwzMjMuMzI0MyAiIGZpbGw9Im5vbmUiIGlkPSJWaWRlb0FuYWx5dGljcy1BbGVydGluZyIgc3R5bGU9InN0cm9rZTojMTgxODE4O3N0cm9rZS13aWR0aDoxLjA7Ii8+PC9nPjwhLS1saW5rIFZpZGVvQW5hbHl0aWNzIHRvIEluY2lkZW50TWFuYWdlbWVudC0tPjxnIGlkPSJsaW5rX1ZpZGVvQW5hbHl0aWNzX0luY2lkZW50TWFuYWdlbWVudCI+PHBhdGggZD0iTTg4Ny4wMjY4LDg0Mi4yOSBDODg3LjMxMTcsODQyLjQxMjEgODg3LjU5OTUsODQyLjUzNTUgODg3Ljg5MDMsODQyLjY2IEM4ODguNDcxOCw4NDIuOTA5MSA4ODkuMDY1MSw4NDMuMTYyOSA4ODkuNjcsODQzLjQyMTQgQzg5MC44Nzk5LDg0My45MzgzIDg5Mi4xMzYzLDg0NC40NzQgODkzLjQzODMsODQ1LjAyNzYgQzg5OC42NDYyLDg0Ny4yNDIzIDkwNC41ODI1LDg0OS43NDU0IDkxMS4xODA1LDg1Mi40OTQ3IEM5MzcuNTcyMiw4NjMuNDkxOSA5NzQuNTQ5NCw4NzguNDI4OCAxMDE3LjgzMzgsODk0LjYwNzUgQzExMDQuNDAyNSw5MjYuOTY1IDEyMTYuMiw5NjQuMjkgMTMxOSw5ODUgQzEzMjIuMjM4OCw5ODUuNjUyNSAxMzI1LjUzNTEsOTg2LjI1ODggMTMyOC44Njk2LDk4Ni44MjIxIEMxMzMwLjUzNjksOTg3LjEwMzcgMTMzMi4yMTM4LDk4Ny4zNzQ2IDEzMzMuODk3Nyw5ODcuNjM1MiBDMTMzNC43Mzk3LDk4Ny43NjU1IDEzMzUuNTgzNSw5ODcuODkzMSAxMzM2LjQyODgsOTg4LjAxODMgQzEzMzYuODUxNCw5ODguMDgwOSAxMzM3LjI3NDQsOTg4LjE0MjggMTMzNy42OTc3LDk4OC4yMDQxICIgZmlsbD0ibm9uZSIgaWQ9IlZpZGVvQW5hbHl0aWNzLUluY2lkZW50TWFuYWdlbWVudCIgc3R5bGU9InN0cm9rZTojMTgxODE4O3N0cm9rZS13aWR0aDoxLjA7Ii8+PC9nPjwhLS1saW5rIE1vZGVsVHJhaW5pbmcgdG8gQ2xvdWRJbnRlZ3JhdGlvbi0tPjxnIGlkPSJsaW5rX01vZGVsVHJhaW5pbmdfQ2xvdWRJbnRlZ3JhdGlvbiI+PHBhdGggZD0iTTE4Ny4yNTk0LDEyMjEuMjMyNyBDMTg3LjQ0NzEsMTIyMS4zNTc1IDE4Ny42MzY2LDEyMjEuNDgzNyAxODcuODI3OSwxMjIxLjYxMTIgQzE4OS4zNTg1LDEyMjIuNjMxNiAxOTEuMDA1NSwxMjIzLjczODcgMTkyLjc2MDYsMTIyNC45MzA0IEMxOTYuMjcwOCwxMjI3LjMxMzkgMjAwLjIxMzYsMTIzMC4wMzU4IDIwNC41MjM2LDEyMzMuMDc5MiBDMjIxLjc2MzQsMTI0NS4yNTI4IDI0NC44NzY5LDEyNjIuNTY5NCAyNjkuNjY4OCwxMjgzLjkzNjMgQzMxOS4yNTI1LDEzMjYuNjcgMzc1LjU1LDEzODUuNjA1IDQwNSwxNDUyIEM0MTUuNjYsMTQ3Ni4wMiAzOTQuOTcsMTU1MC44OCA0MTMsMTU3MCBDNDE3LjQ2MjUsMTU3NC43MzI1IDQyMi42MTM0LDE1NzguNTI3NSA0MjguMjE1OCwxNTgxLjU0NDEgQzQzMS4wMTcsMTU4My4wNTIzIDQzMy45MzExLDE1ODQuMzY2IDQzNi45Mjg0LDE1ODUuNTA1IEM0MzguNDI3LDE1ODYuMDc0NCA0MzkuOTQ2NSwxNTg2LjYwMDIgNDQxLjQ4MywxNTg3LjA4NDggQzQ0Mi4yNTEzLDE1ODcuMzI3MSA0NDMuMDIzOSwxNTg3LjU1OTEgNDQzLjgwMDIsMTU4Ny43ODExICIgZmlsbD0ibm9uZSIgaWQ9Ik1vZGVsVHJhaW5pbmctQ2xvdWRJbnRlZ3JhdGlvbiIgc3R5bGU9InN0cm9rZTojMTgxODE4O3N0cm9rZS13aWR0aDoxLjA7Ii8+PC9nPjwhLS1TUkM9W1hMTkJaamltM0JweEF0WlM3RjgzRkhHOGFoR0RxMnMySk5VbDJ6TGM3MDZBYkNmb0tCVk9Wb19yakU5N1NoRTdHdWVTYVFCMGVtNlpHRkZ3UEEzWTZhbDNiSW5PUVBJNnJtUHItM29xLWVmUzIyUEJOQkNwUVhPRE1CUVFjb3h5aGRSbFJybTk5RGh4MWFxOExwNzNWaDQ2dU9yTmcwdjRQM0tNSE02Rk94OE1yazJUYWktWFFtb1V1THkxcUJEaUdaamZLMXpQWVN1NjNlRmI0ZnZzYVhsRUoxeUJLaDI1T3p2Yks4WkZ5RkkybHJqaVpDX0pVZHFLRG1hdVZBekxZS3QzUEhySTZCWXZLNkYxdTFFaXNTTXFFZUhuaFhDcU1xbHVOMmpmajE4MlRRWFdaRmt5ZHZhYUhTNlJjbVRhMGV3eWpkYmFfQWIyTHZBOXBsMm93VWlpYUx5bmhwRV9LUWhHVmtOckpSYkN6V1p2a2tGLXZqeEpKMmxHTmtGNU5xRF9McDAxLXVndFZ1b2NfZUdsb0FwLUtRMEh4RGRYNXVCUDdoY0xEUFNPdEVSampfd1JxRkszam1KVjVJRmN6NDI3c0x3VlJWNmxBRWRFUUdYTXIxN2M0VmxyS2Jka0pmT2FmcEptTlRLSnRVOTJQVkNtRUNFN1NqLW1RaXI5cU9GMXFvckNhVUVoT2hqWXdFUmQ5WEFpMkViZFp4ZkhLZ0F1NF9oZlhwQnlzQmJ0OHoxb243N1NjbkFGVGJQVUNsVUlaS2dGb2xXOUY1a0RXV1hKcWxhQzRaSmVhMzRVTm9NWkVMd3BNRHp1R3VGTUJVQUNwVGRwUVpuNlhHV05WcnBBaXdmR19ESUNvX3VndnBsRjRSdEZ1VzRyQTk1blJ4bnphVWJXY3JwRUlmWmRzSy1tU3l1cW9fZnoxNlZpaksxY20tSktYMHJjdFdxb3dmdXpQR2NGaGlxVUtldWhLVGlFRlBzM3V3bXZnblVoaUllOW9xX1BOZmJleXRmN1NBWTNfOVVjWlRLRVJkV2pMNWxQMUxmeGFNQWhSbDBZTDNTdWJmT2JCVkd5bExsQ3lteEtKbVdsc0FYTWJ6WWxhampMSkxxbU05cjQ2SXhKSTRmaDl0QndGS0lLLURQQzZpVkpJQkpSbFlSTUs4Ull1cHkwXS0tPjwvZz48L3N2Zz4=;" vertex="1" parent="1">
                        <mxGeometry x="-560" y="-500" width="2600" height="1722" as="geometry"/>
                    </mxCell>
                </UserObject>
            </root>
        </mxGraphModel>
    </diagram>
</mxfile>